<svg width="320" height="320" viewBox="0 0 320 320" fill="none" xmlns="http://www.w3.org/2000/svg">
<path d="M306.869 260.458C306.654 260.106 282.314 212.927 282.317 212.933C289.28 226.393 277.686 246.526 246.012 215.229C219.59 189.119 210.766 179.521 160.161 126.023C141.842 106.658 107.965 89.4326 83.7117 134.159C83.7117 134.159 8.61436 270.401 7.62769 272.937C-4.38564 303.893 27.8757 312.666 42.2277 297.491C65.8664 272.497 80.897 249.401 94.569 236.482C109.332 222.529 121.252 214.802 147.033 228.581C181.598 247.057 240.236 281.885 271.992 298.373C293.713 309.651 305.889 301.813 309.338 298.641C316.093 292.419 319.354 280.994 306.869 260.458" fill="url(#paint0_linear)"/>
<path d="M160.161 126.023C210.766 179.521 219.59 189.119 246.011 215.228C277.686 246.526 289.279 226.393 282.317 212.933C282.314 212.927 306.654 260.106 306.869 260.458C306.954 260.601 307.035 260.739 307.121 260.885L189.275 33.0672C177.574 10.6312 151.057 6.56983 136.585 35.3752L85.79 130.525C109.866 90.4139 142.359 107.205 160.161 126.023" fill="url(#paint1_linear)"/>
<path d="M147.033 228.581C121.252 214.802 109.332 222.529 94.569 236.482C80.897 249.401 65.8663 272.497 42.2277 297.491C40.6543 299.155 38.8583 300.513 36.937 301.603C83.0797 279.742 169.22 244.807 255.326 289.43C222.494 271.398 176.197 244.169 147.033 228.581" fill="url(#paint2_linear)"/>
<defs>
<linearGradient id="paint0_linear" x1="4.99969" y1="205.349" x2="315.321" y2="205.349" gradientUnits="userSpaceOnUse">
<stop stop-color="#27E1B6"/>
<stop offset="0.987879" stop-color="#1793E6"/>
<stop offset="1" stop-color="#1793E6"/>
</linearGradient>
<linearGradient id="paint1_linear" x1="211.759" y1="-38.5435" x2="198.687" y2="161.558" gradientUnits="userSpaceOnUse">
<stop stop-color="#27E1B6"/>
<stop offset="0.987879" stop-color="#054F9E"/>
<stop offset="1" stop-color="#054F9E"/>
</linearGradient>
<linearGradient id="paint2_linear" x1="74.353" y1="385.958" x2="174.908" y2="259.259" gradientUnits="userSpaceOnUse">
<stop stop-color="#27E1B6"/>
<stop offset="0.987879" stop-color="#054F9E"/>
<stop offset="1" stop-color="#054F9E"/>
</linearGradient>
</defs>
</svg>
