<?xml version="1.0" standalone="no"?>
<!DOCTYPE svg PUBLIC "-//W3C//DTD SVG 20010904//EN"
 "http://www.w3.org/TR/2001/REC-SVG-20010904/DTD/svg10.dtd">
<svg version="1.0" xmlns="http://www.w3.org/2000/svg"
 width="1280.000000pt" height="1280.000000pt" viewBox="0 0 1280.000000 1280.000000"
 preserveAspectRatio="xMidYMid meet">
<metadata>
Created by potrace 1.14, written by Peter Selinger 2001-2017
</metadata>
<g transform="translate(0.000000,1280.000000) scale(0.100000,-0.100000)"
fill="#000000" stroke="none">
<path d="M6405 12190 c-225 -34 -442 -154 -622 -344 -136 -143 -221 -269 -363
-541 -35 -66 -93 -176 -130 -245 -73 -137 -135 -253 -206 -387 -26 -49 -59
-110 -74 -138 -15 -27 -49 -90 -75 -140 -26 -49 -60 -112 -75 -140 -15 -27
-52 -97 -82 -155 -31 -58 -67 -125 -80 -150 -14 -25 -47 -85 -73 -135 -78
-148 -135 -253 -200 -375 -72 -133 -162 -304 -202 -381 -16 -30 -30 -56 -33
-59 -3 -3 -11 -16 -17 -30 -18 -36 -303 -571 -333 -625 -9 -16 -50 -93 -91
-170 -40 -77 -85 -161 -99 -187 -77 -144 -96 -180 -135 -253 -23 -44 -51 -96
-62 -115 -38 -66 -226 -405 -256 -460 -42 -78 -201 -367 -462 -840 -59 -107
-121 -220 -138 -250 -17 -30 -89 -163 -162 -295 -73 -132 -146 -265 -162 -295
-17 -30 -41 -75 -55 -100 -33 -60 -134 -243 -168 -305 -15 -27 -62 -113 -105
-190 -76 -138 -122 -222 -175 -320 -15 -27 -36 -66 -47 -85 -11 -19 -36 -64
-55 -100 -20 -36 -73 -132 -118 -215 -197 -358 -255 -463 -283 -515 -16 -30
-37 -68 -47 -85 -10 -16 -37 -66 -60 -110 -24 -44 -63 -115 -87 -157 -23 -43
-43 -80 -43 -83 0 -3 -11 -22 -23 -43 -13 -20 -42 -71 -64 -112 -69 -129 -114
-210 -190 -348 -40 -72 -73 -137 -73 -142 0 -6 -4 -10 -10 -10 -5 0 -10 -5
-10 -11 0 -6 -51 -103 -113 -217 -244 -445 -249 -453 -287 -584 -47 -161 -60
-256 -55 -398 7 -211 67 -367 193 -498 161 -168 368 -245 632 -238 177 5 252
27 512 152 120 57 220 104 222 104 3 0 47 20 98 44 109 51 169 78 183 82 9 2
67 28 180 79 37 17 89 37 93 36 1 -1 15 5 30 13 15 8 120 51 232 96 113 45
219 88 237 96 17 8 34 14 38 14 4 0 51 16 104 36 257 97 527 187 801 269 85
25 176 53 202 61 53 16 389 103 428 110 14 3 50 11 80 19 30 8 89 21 130 30
41 9 82 18 90 20 135 29 483 92 610 110 93 13 167 23 226 30 22 3 55 7 74 9
34 5 106 13 180 21 19 2 71 7 115 10 44 3 103 8 130 10 314 24 995 25 1215 0
19 -2 73 -7 120 -10 47 -4 92 -8 100 -10 8 -2 49 -6 90 -10 41 -4 82 -8 90
-10 8 -1 40 -6 70 -10 271 -34 767 -135 1015 -206 297 -86 515 -159 760 -256
254 -101 332 -135 590 -264 212 -106 271 -136 400 -208 33 -19 94 -52 135 -74
41 -21 122 -64 180 -95 58 -30 112 -59 120 -63 32 -17 145 -69 152 -69 4 -1
31 -11 61 -24 66 -30 233 -80 312 -95 143 -26 176 -30 292 -29 67 0 155 7 195
14 359 66 606 285 674 599 13 59 13 320 0 374 -60 251 -130 427 -271 676 -34
61 -115 214 -180 340 -65 127 -139 271 -165 320 -26 50 -87 167 -135 260 -48
94 -113 220 -145 280 -32 61 -98 189 -147 285 -50 96 -123 238 -163 315 -40
77 -110 214 -157 305 -47 91 -109 210 -138 265 -29 55 -94 181 -145 280 -51
99 -123 239 -160 310 -113 217 -213 412 -300 580 -45 88 -106 205 -135 260
-29 55 -82 159 -119 230 -36 72 -72 141 -80 155 -7 14 -22 43 -33 65 -12 22
-43 83 -71 135 -27 52 -90 174 -140 270 -49 96 -120 234 -157 305 -37 72 -106
204 -152 295 -47 91 -116 224 -153 295 -37 72 -109 211 -160 310 -51 99 -112
216 -135 260 -23 44 -86 166 -140 270 -156 303 -253 492 -315 610 -32 61 -106
205 -165 320 -59 116 -120 233 -135 260 -15 28 -78 149 -140 270 -62 121 -132
256 -155 300 -23 44 -86 166 -140 270 -54 105 -128 249 -165 320 -37 72 -109
211 -160 310 -178 346 -268 461 -511 658 -56 45 -268 144 -359 167 -91 24
-274 34 -365 20z"/>
</g>
</svg>
