<?xml version="1.0" standalone="no"?>
<!DOCTYPE svg PUBLIC "-//W3C//DTD SVG 20010904//EN"
 "http://www.w3.org/TR/2001/REC-SVG-20010904/DTD/svg10.dtd">
<svg version="1.0" xmlns="http://www.w3.org/2000/svg"
 width="1472.000000pt" height="1472.000000pt" viewBox="0 0 1472.000000 1472.000000"
 preserveAspectRatio="xMidYMid meet">
<metadata>
Created by potrace 1.14, written by Peter Selinger 2001-2017
</metadata>
<g transform="translate(0.000000,1472.000000) scale(0.100000,-0.100000)"
fill="#000000" stroke="none">
<path d="M6724 11750 c-4 -8 -8 -19 -10 -25 -6 -20 -77 -211 -89 -240 -7 -16
-18 -48 -25 -70 -7 -22 -15 -44 -19 -50 -3 -5 -6 -13 -7 -17 -1 -5 -2 -9 -3
-10 -2 -2 -4 -12 -6 -24 -3 -11 -11 -33 -19 -49 -8 -16 -13 -32 -10 -37 3 -4
0 -8 -7 -8 -7 0 -10 -3 -6 -6 3 -4 0 -19 -8 -34 -8 -15 -11 -30 -8 -34 4 -3 0
-6 -7 -6 -7 0 -11 -3 -7 -6 3 -3 -3 -29 -15 -58 -11 -28 -21 -55 -22 -61 -1
-5 -5 -16 -9 -22 -5 -7 -10 -21 -12 -30 -2 -10 -18 -56 -36 -103 -17 -47 -51
-141 -75 -210 -25 -69 -49 -134 -54 -145 -5 -11 -18 -47 -29 -80 -11 -33 -25
-73 -32 -90 -7 -16 -13 -33 -14 -37 -2 -5 -3 -9 -5 -10 -1 -2 -3 -10 -5 -18
-2 -8 -9 -28 -16 -45 -6 -16 -13 -34 -15 -40 -1 -5 -8 -23 -15 -40 -6 -16 -13
-37 -15 -45 -2 -8 -9 -30 -17 -50 -25 -58 -47 -125 -44 -130 1 -3 -6 -18 -16
-34 -10 -15 -16 -30 -13 -33 3 -4 2 -11 -3 -17 -5 -6 -14 -29 -21 -51 -7 -22
-17 -46 -23 -52 -5 -7 -6 -13 -2 -13 4 0 2 -6 -4 -13 -6 -8 -8 -17 -4 -20 3
-4 2 -7 -4 -7 -5 0 -10 -6 -10 -12 0 -13 -114 -333 -132 -373 -5 -11 -15 -38
-22 -60 -6 -22 -14 -44 -18 -50 -3 -5 -6 -14 -7 -20 -2 -10 -69 -198 -81 -225
-3 -8 -20 -55 -38 -105 -18 -49 -49 -135 -70 -190 -20 -55 -38 -104 -39 -110
-2 -5 -6 -17 -9 -25 -4 -8 -31 -85 -62 -170 -31 -85 -59 -162 -62 -170 -3 -8
-7 -18 -7 -22 -1 -3 -4 -10 -8 -14 -5 -4 -8 -14 -8 -22 0 -9 -13 -49 -29 -91
-28 -74 -40 -106 -41 -116 0 -3 -9 -25 -20 -49 -10 -24 -16 -47 -13 -50 4 -3
1 -6 -5 -6 -7 0 -11 -3 -10 -7 0 -5 -2 -16 -5 -25 -4 -10 -10 -26 -14 -35 -3
-10 -5 -24 -4 -30 1 -7 -3 -13 -9 -13 -5 0 -10 -9 -10 -20 0 -11 -4 -28 -9
-38 -13 -22 -61 -155 -61 -166 0 -4 -6 -22 -14 -39 -8 -18 -35 -90 -61 -162
-25 -71 -50 -139 -55 -150 -5 -11 -25 -68 -46 -127 -20 -59 -42 -112 -48 -116
-6 -5 -31 -17 -56 -26 -25 -10 -61 -24 -80 -33 -19 -8 -44 -19 -55 -23 -11 -5
-40 -17 -65 -28 -25 -12 -108 -48 -185 -82 -77 -34 -144 -65 -150 -68 -5 -4
-12 -7 -15 -7 -3 -1 -40 -17 -82 -37 -43 -20 -88 -40 -100 -44 -13 -4 -26 -11
-29 -16 -3 -5 -13 -10 -21 -12 -9 -1 -23 -8 -32 -15 -9 -7 -16 -11 -16 -8 0 6
-375 -181 -500 -250 -84 -46 -236 -139 -277 -170 -18 -13 -33 -22 -33 -19 0 6
-28 -16 -55 -41 -8 -7 -17 -13 -20 -13 -6 0 -83 -59 -111 -85 -6 -5 -32 -28
-58 -50 -90 -75 -155 -144 -160 -171 -2 -10 -5 -23 -6 -29 -1 -5 -1 -13 0 -17
1 -5 3 -14 4 -20 3 -30 43 -11 218 104 171 114 237 154 256 159 4 1 23 12 42
24 34 21 205 105 215 105 3 0 21 9 40 20 20 11 42 20 50 20 8 0 15 5 15 10 0
6 6 10 14 10 8 0 27 7 43 15 38 19 184 85 190 85 2 0 30 12 61 27 31 14 62 26
69 26 7 0 13 4 13 8 0 7 49 24 63 21 4 -1 7 3 7 8 0 6 9 10 20 10 11 0 20 4
20 10 0 5 3 9 8 8 8 -1 7 -2 209 84 82 34 150 63 153 64 3 0 19 7 35 14 17 7
35 14 40 16 6 1 31 11 58 23 26 11 49 21 52 21 3 0 25 9 50 20 49 21 53 17 31
-26 -8 -15 -13 -31 -10 -36 3 -4 0 -8 -5 -8 -6 0 -10 -3 -9 -7 2 -8 -21 -81
-31 -98 -3 -5 -6 -14 -7 -20 -2 -12 -41 -121 -54 -150 -16 -38 -122 -330 -137
-380 -8 -27 -18 -54 -23 -60 -4 -5 -10 -22 -14 -37 -3 -15 -11 -40 -18 -55 -6
-15 -12 -30 -13 -33 -1 -3 -4 -12 -8 -20 -3 -8 -29 -80 -57 -160 -29 -80 -58
-159 -66 -177 -8 -17 -14 -35 -14 -39 0 -10 -57 -166 -77 -212 -8 -18 -16 -42
-18 -52 -2 -11 -7 -25 -10 -30 -3 -5 -8 -18 -10 -27 -5 -21 -91 -258 -105
-288 -5 -11 -24 -65 -43 -120 -20 -55 -42 -116 -51 -136 -8 -20 -12 -39 -9
-43 4 -3 0 -6 -7 -6 -7 0 -11 -3 -7 -6 3 -4 0 -19 -9 -35 -8 -16 -14 -30 -14
-31 1 -4 -5 -26 -16 -53 -4 -11 -8 -22 -8 -25 -3 -13 -67 -186 -87 -235 -4
-11 -20 -54 -34 -95 -14 -41 -28 -82 -32 -90 -3 -8 -7 -22 -9 -30 -2 -8 -9
-30 -17 -50 -34 -81 -57 -143 -57 -152 0 -6 -6 -24 -14 -41 -8 -18 -19 -47
-25 -66 -9 -28 -8 -32 4 -27 8 3 15 1 15 -4 0 -5 13 -5 30 0 17 5 30 5 30 2 0
-8 93 -7 107 1 4 2 17 1 28 -3 11 -4 30 -3 43 1 13 5 21 6 19 1 -3 -4 17 -7
43 -7 26 0 46 3 43 7 -2 5 7 4 20 -1 16 -6 28 -6 35 1 6 6 12 6 16 0 4 -7 17
-7 36 -2 17 5 30 6 30 2 0 -4 13 -7 29 -7 16 0 27 3 24 7 -2 5 6 4 19 0 25 -8
67 -8 89 0 8 3 23 2 34 -2 11 -4 30 -4 43 1 12 5 22 5 22 0 0 -4 14 -6 31 -3
28 4 49 30 54 67 1 6 5 17 8 25 4 8 16 42 28 75 12 33 26 71 32 85 6 14 11 28
12 33 2 4 3 8 5 10 1 1 3 9 5 17 5 18 98 273 116 315 6 17 14 38 16 48 1 10
10 31 18 48 9 16 13 29 11 29 -3 0 8 31 24 70 16 39 26 70 23 70 -3 0 -1 6 4
13 6 6 16 30 23 52 7 22 18 54 25 70 19 45 110 299 114 317 1 4 11 29 22 55
12 27 22 55 24 63 2 8 15 47 30 85 15 39 28 77 30 85 2 8 31 89 65 180 34 90
63 169 64 175 1 5 4 15 7 20 6 10 33 85 34 95 0 3 4 11 8 17 5 7 10 21 12 30
2 10 9 32 16 48 6 17 13 35 15 40 6 21 75 211 84 230 16 36 85 230 85 240 0 6
2 12 5 15 5 5 29 65 35 90 2 8 25 71 50 140 26 69 62 166 80 215 18 50 36 99
41 110 4 11 8 22 9 25 8 32 30 88 39 99 6 8 9 15 7 15 -3 1 4 24 14 53 l18 52
66 16 c36 10 77 21 91 26 14 5 35 11 48 14 30 7 147 34 217 51 11 3 34 7 50 9
17 2 51 8 78 14 26 6 64 14 85 16 20 3 53 8 72 11 70 11 106 15 265 30 33 4
163 7 289 8 184 2 244 -1 300 -14 39 -9 74 -17 79 -18 45 -10 64 -16 73 -24 7
-5 16 -8 20 -6 14 3 107 -44 133 -68 22 -21 23 -25 11 -55 -13 -31 -69 -107
-120 -162 -32 -35 -260 -261 -321 -319 -54 -51 -221 -205 -264 -243 -121 -109
-431 -413 -565 -553 -48 -51 -122 -147 -131 -170 -14 -37 -27 -132 -18 -137 4
-3 5 -14 2 -24 -3 -10 0 -22 6 -25 6 -4 11 -15 11 -25 0 -19 31 -51 67 -70 26
-13 94 -17 148 -7 22 3 54 9 70 11 17 3 50 10 75 16 25 5 56 11 70 13 14 1 32
5 40 8 8 4 56 14 105 23 50 9 101 19 115 22 14 3 36 7 50 8 14 2 25 4 25 5 0
1 14 3 30 6 34 4 70 12 70 14 0 1 11 3 25 4 14 1 50 6 80 11 30 5 63 10 73 11
9 1 18 3 20 4 2 2 22 5 102 14 28 4 64 8 80 11 29 4 95 13 160 20 17 2 30 4
30 5 0 0 32 3 70 5 39 2 88 6 110 9 176 22 829 24 1152 3 7 0 16 -10 19 -21 6
-20 35 -98 75 -202 11 -29 22 -58 23 -65 1 -8 10 -32 20 -54 9 -21 18 -46 20
-55 2 -8 7 -24 11 -35 10 -26 52 -140 105 -285 23 -63 47 -131 55 -150 21 -54
28 -75 29 -80 1 -3 5 -11 9 -18 5 -6 6 -12 3 -12 -3 0 1 -12 9 -27 8 -15 12
-30 9 -35 -3 -4 0 -8 6 -8 6 0 9 -4 5 -9 -3 -5 -1 -12 4 -15 5 -3 12 -18 15
-33 4 -16 32 -95 62 -178 31 -82 71 -190 89 -240 18 -49 37 -102 40 -118 4
-15 11 -30 16 -33 5 -3 9 -14 9 -25 0 -10 4 -27 9 -37 9 -16 21 -47 26 -64 2
-5 4 -10 5 -13 1 -3 3 -8 5 -12 2 -8 6 -19 28 -78 7 -16 12 -32 12 -35 0 -3 3
-9 6 -15 4 -5 9 -22 13 -37 3 -16 10 -27 14 -27 4 1 9 0 12 -1 15 -5 70 -4 70
2 0 4 10 4 23 -1 14 -5 30 -5 40 0 9 6 17 6 17 2 0 -4 13 -8 29 -8 16 0 27 3
24 7 -2 5 6 4 19 0 25 -8 67 -8 89 0 8 3 23 2 34 -2 11 -4 29 -4 40 0 11 4 29
4 40 0 11 -4 29 -4 40 0 11 4 29 4 40 0 11 -4 30 -3 43 1 13 5 21 6 19 1 -3
-4 17 -7 43 -7 26 0 46 3 43 7 -2 5 7 4 20 -1 16 -6 28 -6 35 1 6 6 12 6 16 0
4 -7 17 -7 36 -2 17 5 30 5 30 0 0 -4 9 -6 19 -3 18 5 18 10 -16 101 -91 250
-105 288 -107 297 -2 6 -7 21 -13 35 -5 14 -45 122 -87 240 -43 118 -81 224
-86 235 -21 48 -92 251 -93 263 0 6 -4 12 -9 12 -4 0 -8 9 -8 20 0 11 -4 28
-10 38 -5 9 -50 132 -100 272 -50 140 -95 264 -100 275 -11 27 -23 59 -24 65
-1 3 -5 11 -9 18 -5 6 -5 12 -1 12 3 0 -1 11 -10 25 -22 33 -21 34 154 9 71
-10 85 -12 85 -14 0 -1 9 -3 20 -4 11 -2 38 -6 60 -10 22 -4 54 -9 70 -12 17
-2 55 -9 85 -15 30 -6 64 -12 75 -14 22 -4 46 -9 155 -31 41 -9 86 -18 100
-20 14 -3 65 -14 113 -25 49 -12 94 -22 100 -23 25 -6 74 -17 107 -27 19 -5
47 -11 63 -14 63 -12 83 -16 97 -22 24 -10 108 -27 112 -22 2 1 14 -4 27 -11
14 -7 36 -14 50 -16 28 -3 106 -22 131 -31 8 -3 20 -7 25 -8 6 -2 39 -10 75
-20 36 -9 72 -18 80 -20 8 -2 69 -17 135 -33 207 -53 180 -47 262 -55 29 -3
55 -2 58 3 3 5 11 7 18 4 25 -9 52 35 54 89 2 58 -18 88 -87 132 -46 29 -227
86 -449 141 -63 15 -180 45 -196 50 -11 4 -30 7 -42 8 -13 0 -23 4 -23 9 0 4
-10 7 -22 7 -12 0 -35 4 -52 9 -59 18 -414 103 -529 126 -10 2 -26 6 -35 9 -9
3 -33 8 -52 11 -19 3 -43 8 -52 11 -17 5 -44 11 -93 20 -16 3 -64 12 -105 20
-118 25 -168 34 -210 39 -14 2 -25 4 -25 5 0 3 -98 19 -165 26 -19 2 -46 6
-60 10 -14 4 -34 8 -45 9 -11 1 -49 6 -85 10 -36 4 -73 8 -82 9 -10 0 -22 12
-27 26 -5 14 -26 70 -45 125 -20 55 -39 107 -43 115 -3 8 -7 18 -8 23 -2 4 -4
9 -5 12 -1 3 -3 8 -4 13 -2 8 -33 94 -46 127 -4 11 -13 36 -20 55 -7 19 -16
44 -20 55 -5 11 -18 47 -30 80 -11 33 -23 67 -27 75 -3 8 -7 20 -9 25 -6 24
-29 83 -46 122 -10 24 -18 47 -18 52 0 4 -9 30 -19 57 -11 27 -37 99 -59 159
-22 61 -66 180 -97 265 -62 167 -80 221 -77 233 1 4 -3 7 -8 7 -5 0 -9 3 -8 8
0 4 -2 16 -6 27 -5 11 -16 44 -27 73 -10 28 -28 77 -39 107 -11 30 -29 80 -40
110 -44 120 -60 164 -94 255 -20 52 -36 100 -36 105 0 6 -6 22 -14 36 -7 14
-16 39 -20 55 -4 16 -14 43 -21 59 -8 17 -26 64 -40 105 -64 180 -85 238 -104
286 -11 29 -17 55 -14 58 4 3 1 6 -5 6 -7 0 -11 3 -10 8 1 4 -4 20 -10 35 -7
16 -12 33 -12 38 0 5 -4 17 -10 27 -5 9 -35 89 -66 177 -31 88 -61 171 -67
185 -5 14 -11 30 -13 35 -1 6 -17 48 -34 95 -18 47 -36 101 -42 120 -6 19 -13
40 -17 45 -4 6 -13 28 -20 50 -7 22 -16 49 -20 60 -9 20 -28 72 -96 260 -20
55 -41 114 -48 130 -6 17 -12 32 -13 35 0 3 -4 14 -8 25 -4 11 -12 31 -17 45
-5 14 -14 39 -20 55 -7 17 -13 32 -14 35 0 3 -9 30 -20 60 -11 30 -20 57 -20
60 -1 3 -7 19 -14 35 -7 17 -25 66 -41 110 -15 44 -42 118 -60 165 -17 47 -33
90 -34 95 -2 6 -8 21 -13 35 -6 14 -18 45 -26 70 -9 25 -32 90 -52 145 -20 55
-41 111 -45 125 -5 14 -20 54 -33 90 -14 36 -43 117 -66 180 -23 63 -44 122
-48 130 -3 8 -7 18 -7 22 -1 3 -4 10 -8 14 -5 4 -8 16 -8 26 0 10 -4 26 -10
36 -5 9 -23 58 -41 107 -17 50 -37 104 -44 120 -7 17 -24 64 -39 105 l-27 75
-419 0 c-364 0 -421 -2 -426 -15z m462 -1263 c16 -45 29 -84 29 -87 1 -3 8
-18 15 -35 7 -16 14 -34 16 -40 3 -14 44 -126 54 -150 5 -11 16 -40 24 -65 8
-25 27 -76 41 -115 14 -38 28 -74 29 -80 2 -5 8 -23 15 -40 7 -16 13 -38 14
-47 1 -10 4 -18 8 -18 4 0 11 -14 14 -32 4 -18 11 -39 16 -48 7 -14 20 -46 24
-62 2 -5 4 -10 5 -13 4 -8 7 -17 15 -52 4 -18 11 -33 15 -33 4 0 10 -12 13
-27 2 -16 55 -163 116 -328 61 -165 114 -311 117 -325 3 -13 8 -29 13 -35 4
-5 13 -28 20 -50 7 -22 16 -49 21 -60 10 -24 122 -333 141 -390 8 -22 16 -42
19 -45 3 -3 6 -12 8 -20 1 -8 12 -39 22 -67 11 -29 29 -78 40 -108 11 -30 29
-80 40 -110 11 -30 29 -80 40 -110 11 -30 29 -79 39 -107 11 -29 22 -62 27
-73 4 -11 8 -24 10 -30 1 -5 8 -23 15 -40 6 -16 13 -34 15 -40 1 -5 14 -41 29
-80 14 -38 40 -108 56 -155 28 -78 60 -165 80 -215 4 -11 19 -54 34 -95 15
-41 29 -82 32 -90 9 -22 13 -37 13 -45 0 -3 7 -19 16 -36 8 -17 17 -38 19 -47
2 -10 9 -30 16 -47 7 -16 13 -32 13 -35 2 -8 127 -352 141 -385 7 -16 21 -55
31 -85 10 -30 22 -59 26 -65 4 -5 8 -17 8 -27 0 -10 4 -26 10 -36 13 -23 170
-454 175 -481 4 -21 3 -21 -138 -16 -303 13 -735 8 -922 -10 -79 -8 -151 -16
-180 -20 -16 -3 -51 -7 -77 -10 -26 -3 -62 -7 -80 -10 -18 -3 -49 -7 -68 -9
-30 -4 -94 -14 -205 -32 -16 -3 -38 -7 -48 -10 -9 -3 -39 -8 -65 -10 -56 -6
-97 -11 -97 -14 0 -1 -11 -3 -25 -6 -14 -2 -38 -7 -55 -10 -16 -3 -41 -6 -55
-8 -14 -2 -50 -8 -80 -14 -30 -6 -68 -13 -85 -16 -16 -2 -41 -7 -55 -10 -14
-3 -37 -8 -52 -11 -58 -11 -82 -16 -90 -21 -4 -3 -8 -1 -8 5 0 6 39 51 88 102
48 50 89 95 90 100 2 5 7 9 11 9 5 0 44 35 88 78 68 65 156 147 293 272 166
152 229 211 324 306 61 60 130 132 154 160 23 27 48 56 56 64 7 8 21 29 32 45
10 17 21 32 25 35 6 5 35 66 58 125 18 47 23 92 22 195 -1 97 -2 110 -16 145
-21 57 -37 83 -67 111 -36 34 -118 88 -118 78 0 -4 -7 -1 -15 6 -8 7 -15 10
-15 7 0 -3 -15 0 -34 8 -31 13 -47 18 -113 30 -16 3 -34 8 -40 10 -53 19 -443
27 -588 12 -128 -12 -273 -32 -330 -43 -11 -3 -36 -7 -55 -10 -19 -2 -60 -10
-90 -16 -30 -6 -64 -12 -75 -14 -11 -1 -20 -3 -20 -4 0 -3 -18 -6 -65 -14 -14
-2 -25 -5 -25 -6 0 -1 -8 -3 -19 -5 -10 -2 -41 -9 -70 -16 -28 -7 -54 -14 -58
-15 -5 -1 -9 -2 -10 -4 -2 -1 -16 -4 -32 -6 -24 -4 -27 -2 -21 13 3 10 14 38
22 63 9 25 20 56 26 70 5 14 11 30 12 35 3 11 107 297 130 355 19 50 28 74 29
80 2 7 46 130 56 155 15 38 35 90 36 95 0 3 6 18 12 33 7 16 12 32 12 36 0 5
13 42 29 82 39 101 44 113 47 124 1 6 8 24 15 40 6 17 13 35 15 42 1 6 28 81
59 165 31 84 61 164 65 178 5 14 15 39 21 55 7 17 13 36 15 43 1 7 12 36 23
65 11 28 37 97 57 152 19 55 47 132 62 170 14 39 27 72 27 75 1 9 37 104 50
135 8 16 11 33 9 37 -3 4 0 8 7 8 7 0 10 3 6 6 -3 4 0 19 8 34 8 15 11 30 8
34 -4 3 0 6 7 6 7 0 10 3 7 7 -4 3 -2 12 4 20 6 7 9 13 6 13 -3 0 1 17 10 38
8 20 33 87 54 147 22 61 42 117 46 125 3 8 7 17 8 20 1 3 5 12 8 20 4 8 14 38
23 65 9 28 21 61 27 75 5 14 11 30 13 35 6 23 75 212 84 230 9 19 56 151 67
187 9 29 20 12 49 -75z"/>
</g>
</svg>
