<?xml version="1.0" standalone="no"?>
<!DOCTYPE svg PUBLIC "-//W3C//DTD SVG 20010904//EN"
 "http://www.w3.org/TR/2001/REC-SVG-20010904/DTD/svg10.dtd">
<svg version="1.0" xmlns="http://www.w3.org/2000/svg"
 width="650.000000pt" height="650.000000pt" viewBox="0 0 650.000000 650.000000"
 preserveAspectRatio="xMidYMid meet">
<metadata>
Created by potrace 1.14, written by Peter Selinger 2001-2017
</metadata>
<g transform="translate(0.000000,650.000000) scale(0.100000,-0.100000)"
fill="#000000" stroke="none">
<path d="M0 3250 l0 -3250 3250 0 3250 0 0 3250 0 3250 -3250 0 -3250 0 0
-3250z m3502 2358 c3 -7 256 -704 563 -1548 307 -844 562 -1539 566 -1544 4
-5 72 -19 151 -32 281 -47 834 -164 898 -190 46 -20 70 -43 70 -69 0 -59 -40
-58 -323 4 -349 78 -732 150 -741 140 -2 -2 113 -323 255 -714 142 -390 259
-713 259 -717 0 -5 -105 -8 -233 -8 l-233 0 -269 738 c-147 405 -273 742 -279
749 -8 9 -92 14 -296 19 -388 9 -620 -8 -1019 -76 -224 -39 -263 -39 -291 -3
-17 22 -21 37 -17 68 5 34 17 51 89 120 46 44 187 163 313 265 238 191 355
297 355 323 0 20 -81 53 -165 68 -101 17 -519 -2 -542 -25 -2 -2 -187 -507
-411 -1122 l-408 -1119 -233 -3 c-185 -2 -232 0 -229 10 9 23 689 1900 728
2009 l39 107 -112 -35 c-146 -46 -402 -136 -652 -230 -193 -72 -398 -166 -517
-235 -31 -18 -60 -30 -63 -26 -30 30 79 125 246 217 244 134 694 313 1128 449
21 6 69 132 456 1199 238 655 435 1199 438 1207 6 14 37 16 241 16 178 0 235
-3 238 -12z"/>
<path d="M3261 4960 c-1 -3 -136 -374 -300 -825 -165 -451 -299 -821 -298
-821 1 -1 31 3 67 9 36 5 146 10 245 11 309 1 405 -44 405 -191 0 -72 -24
-126 -82 -189 -24 -26 -153 -136 -288 -244 -238 -192 -315 -260 -278 -247 26
9 395 64 548 81 186 22 439 29 668 19 105 -4 192 -7 192 -7 0 3 -840 2307
-860 2359 -10 28 -19 48 -19 45z"/>
</g>
</svg>
