<svg width="123" height="184" viewBox="0 0 123 184" fill="none" xmlns="http://www.w3.org/2000/svg">
<path d="M62.1651 92.4118C54.8217 90.8285 40.5169 93.9074 26.9542 99.9897L23.7527 101.427C14.7534 105.475 9.89194 108.297 6.44905 111.473C5.10531 112.713 4.98788 112.878 5.00086 113.512C5.02063 114.437 5.23461 114.366 7.7095 112.616C10.2705 110.805 12.5509 109.629 18.7885 106.905C39.6361 97.7984 49.32 95.1363 60.0679 95.5584C62.1741 95.6407 65.5021 96.8506 65.4795 97.5257C65.4493 98.427 63.2567 100.809 58.2104 105.424C52.0021 111.1 48.2086 114.973 47.8498 116.002C47.2364 117.76 47.7928 119.36 49.1038 119.609C49.853 119.751 50.0249 119.728 53.5056 119.014C63.4992 116.968 69.863 116.357 78.4508 116.62C91.5287 117.021 99.8266 118.319 115.372 122.398C120.958 123.864 121.248 123.907 122.304 123.413L122.323 123.405C122.662 123.25 122.755 122.014 122.435 121.625C121.614 120.627 121.054 120.403 116.211 119.141C99.9768 114.908 91.4057 113.533 78.9315 113.166C72.3712 112.973 69.4416 113.078 64.6397 113.68C61.3569 114.091 52.6785 115.58 51.4576 115.94C50.7916 116.137 53.7535 113.178 58.9396 108.466C65.4999 102.504 66.8252 100.733 66.9297 97.7954C67.0474 94.4826 65.9335 93.224 62.1651 92.4118V92.4118Z" fill="#111827"/>
<path d="M102.359 142C96.0117 124.52 83.2676 89.5098 64.127 36.9707C62.3691 36.9707 58.8535 36.9707 53.5801 36.9707C47.2324 54.4512 34.5371 89.4609 15.4941 142C17.252 142 20.7188 142 25.8945 142C31.3633 126.961 42.3496 96.834 58.8535 51.6191C64.3223 66.6582 75.3086 96.7852 91.8125 142C93.5703 142 97.0859 142 102.359 142Z" fill="#111827"/>
</svg>
