<?xml version="1.0" encoding="UTF-8"?>
<!-- Generator: Adobe Illustrator 16.0.0, SVG Export Plug-In . SVG Version: 6.00 Build 0)  -->
<!DOCTYPE svg PUBLIC "-//W3C//DTD SVG 1.1//EN" "http://www.w3.org/Graphics/SVG/1.1/DTD/svg11.dtd">
<svg version="1.1" id="Layer_1" xmlns="http://www.w3.org/2000/svg" xmlns:xlink="http://www.w3.org/1999/xlink" x="0px" y="0px" width="1800px" height="450px" viewBox="0 0 1800 450" enable-background="new 0 0 1800 450" xml:space="preserve">
<g>
	<path fill="#FFFFFF" stroke="#BDBEC0" stroke-width="10" stroke-miterlimit="10" d="M1784.205,381.149c0,27.614-22.385,50-50,50   H65.794c-27.614,0-50-22.386-50-50V70.17c0-27.614,22.386-50,50-50h1668.411c27.615,0,50,22.386,50,50V381.149z"/>
	<g>
		<path fill="#72CADA" d="M80.987,233.771c-10.374,0.078-19.161-6.104-22.401-15.752c-0.12-0.363-0.232-0.73-0.336-1.1    c-3.531-12.357,3.315-25.284,15.587-29.422l196.824-65.941c2.337-0.676,4.755-1.028,7.188-1.049    c10.649-0.083,19.678,6.234,22.997,16.087l0.295,0.951c3.683,12.87-5.466,24.357-16.427,28.04    c-0.008,0.006-2.002,0.68-195.733,66.825C86.406,233.287,83.708,233.748,80.987,233.771z"/>
		<path fill="#DF1766" d="M113.794,330.568c-10.454,0.076-19.272-6.02-22.475-15.529c-0.122-0.361-0.235-0.727-0.34-1.094    c-3.58-12.504,3.259-25.566,15.571-29.711l196.832-66.545c2.543-0.85,5.17-1.283,7.812-1.309    c10.483-0.08,19.694,6.326,22.943,15.943l0.302,1.002c1.901,6.648,0.778,14.119-3.002,20.016    c-2.816,4.385-11.703,8.244-11.703,8.244l-197.579,67.557c-2.694,0.914-5.517,1.396-8.361,1.43V330.568z"/>
		<path fill="#E8A725" d="M277.644,330.99c-10.467,0.1-19.808-6.549-23.14-16.471l-65.69-195.125l-0.328-1.096    c-3.56-12.442,3.285-25.422,15.553-29.558c2.455-0.825,4.992-1.256,7.547-1.278c3.796-0.027,7.468,0.827,10.927,2.536    c5.756,2.846,10.138,7.869,12.178,13.958l65.684,195.107l0.191,0.627c3.689,12.92-3.141,25.906-15.408,30.041    C282.733,330.543,280.198,330.967,277.644,330.99L277.644,330.99z"/>
		<path fill="#3FB890" d="M180,363.855c-10.473,0.1-19.818-6.555-23.149-16.482L91.178,152.254    c-4.273-12.642,2.51-26.354,15.152-30.628c0.017-0.006,0.033-0.012,0.05-0.017c2.427-0.812,4.966-1.237,7.524-1.262    c10.468-0.104,19.812,6.547,23.143,16.471l65.676,195.125c4.273,12.643-2.511,26.355-15.153,30.629    c-0.021,0.008-0.044,0.016-0.065,0.021c-2.423,0.813-4.957,1.238-7.512,1.26H180V363.855z"/>
		<path fill="#CC2128" d="M245.26,287.049l45.803-15.662l-14.973-44.465l-45.857,15.496L245.26,287.049z"/>
		<path fill="#361538" d="M147.767,320.383l45.8-15.66l-15.087-44.805l-45.845,15.502L147.767,320.383z"/>
		<path fill="#66873A" d="M212.65,190.192l45.807-15.64l-14.797-43.947l-45.893,15.375L212.65,190.192z"/>
		<path fill="#1E937D" d="M115.146,223.48l45.807-15.639l-14.979-44.509l-45.893,15.374L115.146,223.48z"/>
	</g>
	<g>
		<path fill="#443743" d="M1119.529,219.36c0-27.979,20.4-47.516,57.473-47.516c22.62,0,41.13,7.223,51.158,14.298    c1.436,1.01,3.995,3.461,2.46,8.019c-1.967,4.909-5.575,12.292-8.164,17.088c-1.507,2.795-5.355,2.427-7.326,1.428    c-7.144-3.619-18.859-9.743-29.622-10.872c-2.726-0.297-5.467-0.415-8.208-0.354c-9.479,0.211-17.397,3.502-20.187,10.733    c-0.547,1.368-0.852,2.821-0.9,4.294c-0.261,9.529,13.002,12.976,29.068,15.736c29.869,5.117,52.467,13.874,52.467,44.618    c0,26.107-20.749,49.702-61.403,48.979c-26.801-0.542-45.814-9.597-56.004-18.385c-0.347-0.298-4.226-4.248-2.146-8.999    c2.379-6.116,6.396-13.125,9.546-16.847c1.753-2.391,6.377-2.77,8.781-1.28c8.398,5.219,22.22,13.588,38.152,14.143    c1.258,0.044,2.503,0.052,3.727,0.02c14.332-0.348,23.002-5.782,22.821-14.936c-0.155-8.064-11.519-12.775-29.612-16.186    c-28.859-5.437-52.076-14.949-52.076-43.98 M1381.709,259.2c-20.351,0.266-39.01,5.828-39.548,21.732    c-0.006,12.621,10.232,18.819,24.601,18.008c13.784-1.327,24.296-7.306,28.928-15.237c1.713-2.94,1.973-13.941,1.869-18.643    c-0.026-1.001-2.005-2.895-2.872-3.259c-4.324-1.822-7.524-2.385-12.979-2.605 M1313.993,195.115    c9.517-8.516,28.385-21.771,58.456-21.072c39.685,0.825,60.648,19.43,62.602,63.934c0.804,18.354-0.529,69.546-0.847,82.3    c-0.047,1.83-0.666,3.096-3.132,3.143c-6.535,0.263-21.633,0.158-28.57,0.067c-3.501-0.169-3.907-1.906-3.952-3.725    c-0.03-1.19-0.132-4.717-0.206-7.593c-0.039-1.525-1.473-1.482-1.839-1.091c-9.309,9.939-24.554,14.738-40.766,14.738    c-24.641,0-49.206-14.495-49.131-43.201c0.075-29.399,20.921-43.9,43.821-47.32c14.663-2.183,31.192-0.241,43.709,4.732    c0.801,0.32,2.437-0.144,2.449-1.278c0.051-3.746-0.13-10.886-0.85-14.27c-1.837-8.621-9.029-15.559-24.139-17.428    c-3.111-0.383-6.244-0.51-9.38-0.261c-12.011,0.944-26.465,10.31-32.451,13.816c-1.408,0.823-3.613,0.221-4.327-0.698    c-3.493-4.514-12.273-17.712-12.965-19.82c-0.69-2.104,0.283-3.875,1.513-4.981L1313.993,195.115L1313.993,195.115z     M1448.135,249.842c-0.235-41.002,28.333-75.591,74.722-75.896c28.946-0.188,49.975,12.935,53.683,19.124    c0.754,1.453,0.367,2.668-0.154,4.131c-2.451,5.174-8.641,15.17-13.051,20.834c-1.879,2.413-3.918,0.346-6.288-1.23    c-6.577-4.381-19.073-9.737-31.37-9.737c-22.311,0.004-38.925,15.302-38.74,43.447c0.174,27.008,16.088,41.851,38.817,42.39    c11.883,0.298,23.395-6.532,29.588-12.127c1.944-1.697,3.958-0.848,6.181,0.89c4.361,4.458,10.617,11.341,14.085,16.078    c2.271,2.632,0.572,5.208-0.245,6.242c-9.411,11.909-27.586,21.932-51.64,22.067c-50.366,0.353-75.351-35.06-75.582-76.207     M1688.553,324.206c2.363-0.178,27.592-3.659,35.335-5.433c1.923-0.438,2.605-2.054,1.531-3.655    c-4.323-6.483-15.692-24.897-27.6-41.381c-10.951-15.157-22.494-28.487-26.228-33.615c-0.909-1.247-0.86-2.475,0.131-3.441    c7.102-6.948,36.807-36.073,47.975-48.101c4.324-4.679,1.729-6.692-1.944-7.785c-7.094-2.114-18.568-4.751-25.094-6.127    c-2.751-0.582-6.065-0.378-8.471,2.096c-11.167,10.413-45.246,44.617-55.42,54.843c-1.831,1.844-2.898,1.435-2.907-1.201    c-0.084-19.713-0.473-104.11-1.178-117.993c-0.049-1.835-2.256-3.229-3.5-3.295c-6.396-0.334-22.559-0.43-28.927-0.057    c-1.784,0.202-3.489,2.021-3.645,3.558c-1.47,22.197,0.623,185.145,1.495,207.938c0.063,1.648,1.29,2.927,2.855,3.019    c6.354,0.368,22.069,0.344,29.406,0.206c3.61,0,4.053-2.538,4.053-2.538l0.543-43.725c0,0,0.372-1.944,0.975-2.587    c2.587-2.784,9.743-10.454,12.795-13.419c0.732-0.712,1.888-0.66,2.636,0.346c3.625,4.891,13.963,20.789,23.546,34.988    c8.804,13.043,17.023,24.619,17.598,25.438c1.325,1.888,2.873,1.963,4.041,1.928v-0.006H1688.553z M1259.494,324.055    c2.219,0.074,19.052,0.055,26.511,0.046c2.511,0.049,3.815-1.853,3.899-3.531c1.584-31.959,0.906-184.12-0.095-208.147    c-0.083-2.077-0.973-2.856-2.391-3.046c-6.4-0.857-24.592-0.657-30.423,0.869c-1.141,0.296-1.813,1.163-1.848,2.277    c-1.428,61.932-0.465,204.716-0.163,207.42c0.301,2.708,1.717,4.019,4.513,4.112H1259.494L1259.494,324.055z"/>
		<g>
			<path fill="#443743" d="M430.035,282.816c0,6.508-0.814,12.428-2.44,17.761c-1.627,5.333-4.08,9.907-7.36,13.72     c-3.28,3.814-7.4,6.773-12.36,8.881c-4.96,2.105-10.8,3.159-17.52,3.159c-3.04,0-6.04-0.159-9-0.479s-6.04-0.854-9.24-1.6     l1.44-15.761c0.106-1.386,0.652-2.507,1.64-3.36c0.986-0.852,2.36-1.279,4.12-1.279c0.906,0,2.026,0.146,3.36,0.439     c1.333,0.294,2.933,0.44,4.8,0.44c2.612,0,4.893-0.36,6.84-1.08c1.946-0.72,3.56-1.92,4.84-3.601c1.28-1.68,2.24-3.879,2.88-6.6     c0.64-2.72,0.96-6.08,0.96-10.08v-74.88h27.04V282.816z"/>
			<path fill="#443743" d="M486.194,240.816c6.292,0,12.026,0.988,17.2,2.961c5.173,1.974,9.613,4.8,13.32,8.48     c3.706,3.68,6.586,8.146,8.64,13.399c2.052,5.253,3.08,11.159,3.08,17.72c0,6.613-1.027,12.574-3.08,17.881     c-2.054,5.307-4.934,9.813-8.64,13.52c-3.708,3.707-8.147,6.56-13.32,8.56c-5.173,2-10.907,3-17.2,3c-6.348,0-12.12-1-17.32-3     c-5.2-2-9.68-4.853-13.44-8.56c-3.76-3.707-6.667-8.213-8.72-13.52c-2.054-5.307-3.08-11.268-3.08-17.881     c0-6.561,1.026-12.467,3.08-17.72c2.052-5.253,4.96-9.72,8.72-13.399c3.76-3.681,8.24-6.507,13.44-8.48     C474.074,241.805,479.846,240.816,486.194,240.816z M486.194,307.938c5.706,0,9.906-2.013,12.6-6.041     c2.692-4.025,4.04-10.146,4.04-18.359c0-8.213-1.348-14.32-4.04-18.32c-2.694-4-6.894-6-12.6-6c-5.868,0-10.16,2-12.88,6     c-2.72,4-4.08,10.107-4.08,18.32c0,8.214,1.36,14.334,4.08,18.359C476.034,305.925,480.326,307.938,486.194,307.938z"/>
			<path fill="#443743" d="M570.512,219.377c0,1.974-0.4,3.828-1.2,5.56c-0.8,1.734-1.894,3.254-3.28,4.56     c-1.388,1.308-3,2.348-4.84,3.12c-1.84,0.773-3.8,1.16-5.88,1.16c-2.027,0-3.92-0.387-5.68-1.16     c-1.76-0.772-3.32-1.813-4.68-3.12c-1.36-1.306-2.428-2.826-3.2-4.56c-0.773-1.732-1.16-3.586-1.16-5.56     c0-2.026,0.386-3.92,1.16-5.68c0.772-1.76,1.84-3.306,3.2-4.64c1.36-1.333,2.92-2.373,4.68-3.12c1.76-0.746,3.652-1.12,5.68-1.12     c2.08,0,4.04,0.374,5.88,1.12c1.84,0.748,3.453,1.788,4.84,3.12c1.386,1.334,2.48,2.88,3.28,4.64     C570.112,215.457,570.512,217.351,570.512,219.377z M567.632,242.098v82.959h-24.8v-82.959H567.632z"/>
			<path fill="#443743" d="M587.63,325.057v-82.959h15.36c1.546,0,2.84,0.348,3.88,1.039c1.04,0.694,1.772,1.734,2.2,3.121     l1.44,4.799c1.6-1.492,3.252-2.879,4.96-4.16c1.707-1.279,3.533-2.359,5.48-3.239c1.946-0.88,4.053-1.573,6.32-2.08     c2.266-0.507,4.732-0.761,7.4-0.761c4.532,0,8.546,0.788,12.04,2.361c3.492,1.573,6.44,3.76,8.84,6.56s4.212,6.134,5.44,10     c1.226,3.867,1.84,8.067,1.84,12.6v52.72h-24.8v-52.72c0-4.052-0.934-7.212-2.8-9.479c-1.868-2.267-4.614-3.4-8.24-3.4     c-2.72,0-5.28,0.588-7.68,1.76c-2.4,1.174-4.693,2.748-6.88,4.721v59.119H587.63z"/>
			<path fill="#443743" d="M734.506,242.098v52.64c0,4.107,0.933,7.28,2.8,9.521c1.866,2.239,4.612,3.359,8.24,3.359     c2.72,0,5.267-0.561,7.64-1.68c2.373-1.121,4.68-2.693,6.92-4.721v-59.119h24.8v82.959h-15.36c-3.094,0-5.12-1.386-6.08-4.16     l-1.52-4.799c-1.6,1.547-3.254,2.947-4.96,4.199c-1.708,1.254-3.534,2.32-5.48,3.2c-1.947,0.88-4.04,1.573-6.28,2.08     c-2.24,0.507-4.694,0.76-7.36,0.76c-4.534,0-8.548-0.787-12.04-2.36c-3.494-1.572-6.44-3.771-8.84-6.6     c-2.4-2.826-4.213-6.16-5.44-10c-1.228-3.84-1.84-8.053-1.84-12.64v-52.64H734.506z"/>
			<path fill="#443743" d="M854.824,260.258c-0.64,1.014-1.32,1.732-2.04,2.159c-0.72,0.428-1.64,0.64-2.76,0.64     c-1.174,0-2.348-0.252-3.52-0.76c-1.174-0.506-2.44-1.053-3.8-1.64c-1.36-0.587-2.894-1.133-4.6-1.64     c-1.708-0.507-3.654-0.76-5.84-0.76c-3.147,0-5.56,0.6-7.24,1.799c-1.68,1.201-2.52,2.868-2.52,5c0,1.548,0.546,2.828,1.64,3.84     c1.092,1.014,2.546,1.908,4.36,2.681c1.813,0.774,3.866,1.507,6.16,2.2c2.292,0.693,4.64,1.467,7.04,2.32     c2.4,0.854,4.746,1.854,7.04,3c2.292,1.146,4.346,2.56,6.16,4.239c1.813,1.681,3.266,3.72,4.36,6.12     c1.093,2.4,1.64,5.28,1.64,8.641c0,4.107-0.748,7.893-2.24,11.359c-1.494,3.468-3.72,6.453-6.68,8.96     c-2.96,2.508-6.614,4.454-10.96,5.841c-4.348,1.386-9.348,2.079-15,2.079c-2.828,0-5.654-0.267-8.48-0.8     c-2.828-0.533-5.56-1.252-8.2-2.16c-2.64-0.906-5.08-1.986-7.32-3.24c-2.24-1.252-4.16-2.6-5.76-4.039l5.76-9.121     c0.692-1.066,1.52-1.906,2.48-2.52c0.96-0.612,2.212-0.92,3.76-0.92c1.44,0,2.733,0.32,3.88,0.96     c1.146,0.64,2.386,1.334,3.72,2.08c1.333,0.747,2.893,1.44,4.68,2.08c1.786,0.64,4.04,0.96,6.76,0.96c1.92,0,3.546-0.2,4.88-0.6     c1.333-0.4,2.4-0.947,3.2-1.641c0.8-0.692,1.386-1.467,1.76-2.32c0.373-0.852,0.56-1.732,0.56-2.64c0-1.652-0.56-3.013-1.68-4.08     c-1.12-1.065-2.587-1.985-4.4-2.76c-1.814-0.772-3.88-1.493-6.2-2.16c-2.32-0.666-4.68-1.427-7.08-2.28     c-2.4-0.852-4.76-1.879-7.08-3.08c-2.32-1.199-4.387-2.72-6.2-4.56c-1.814-1.84-3.28-4.093-4.4-6.76     c-1.12-2.667-1.68-5.893-1.68-9.681c0-3.52,0.68-6.865,2.04-10.039c1.36-3.173,3.4-5.961,6.12-8.36     c2.72-2.399,6.132-4.306,10.24-5.72c4.106-1.413,8.906-2.121,14.4-2.121c2.986,0,5.88,0.268,8.68,0.801s5.426,1.279,7.88,2.24     c2.453,0.959,4.693,2.094,6.72,3.4c2.026,1.307,3.813,2.732,5.36,4.279L854.824,260.258z"/>
			<path fill="#443743" d="M942.342,240.816c6.292,0,12.025,0.988,17.199,2.961c5.173,1.974,9.613,4.8,13.32,8.48     c3.706,3.68,6.586,8.146,8.641,13.399c2.052,5.253,3.079,11.159,3.079,17.72c0,6.613-1.027,12.574-3.079,17.881     c-2.055,5.307-4.935,9.813-8.641,13.52c-3.707,3.707-8.147,6.56-13.32,8.56c-5.174,2-10.907,3-17.199,3     c-6.348,0-12.121-1-17.32-3c-5.2-2-9.68-4.853-13.44-8.56c-3.76-3.707-6.667-8.213-8.72-13.52     c-2.054-5.307-3.08-11.268-3.08-17.881c0-6.561,1.026-12.467,3.08-17.72c2.053-5.253,4.96-9.72,8.72-13.399     c3.761-3.681,8.24-6.507,13.44-8.48C930.221,241.805,935.994,240.816,942.342,240.816z M942.342,307.938     c5.705,0,9.906-2.013,12.6-6.041c2.692-4.025,4.04-10.146,4.04-18.359c0-8.213-1.348-14.32-4.04-18.32c-2.693-4-6.895-6-12.6-6     c-5.868,0-10.16,2-12.881,6c-2.72,4-4.08,10.107-4.08,18.32c0,8.214,1.36,14.334,4.08,18.359     C932.182,305.925,936.474,307.938,942.342,307.938z"/>
			<path fill="#443743" d="M998.18,325.057v-82.959h15.359c1.547,0,2.84,0.348,3.88,1.039c1.04,0.694,1.772,1.734,2.2,3.121     l1.439,4.799c1.601-1.492,3.253-2.879,4.961-4.16c1.706-1.279,3.532-2.359,5.479-3.239c1.946-0.88,4.053-1.573,6.32-2.08     c2.267-0.507,4.732-0.761,7.399-0.761c4.533,0,8.547,0.788,12.041,2.361c3.492,1.573,6.439,3.76,8.84,6.56     c2.399,2.8,4.212,6.134,5.439,10c1.227,3.867,1.84,8.067,1.84,12.6v52.72h-24.8v-52.72c0-4.052-0.934-7.212-2.8-9.479     c-1.867-2.267-4.613-3.4-8.24-3.4c-2.72,0-5.279,0.588-7.68,1.76c-2.4,1.174-4.693,2.748-6.881,4.721v59.119H998.18z"/>
		</g>
	</g>
</g>
</svg>
