<svg viewBox="0 0 893 111" xmlns="http://www.w3.org/2000/svg">
    <path fill="none" stroke="#9377b4" stroke-width="1.5" stroke-linecap="round" stroke-linejoin="round" stroke-miterlimit="10"
          d="M516.5 57.3l5.2 3.5.2-6.4-5.4 2.9zM286.8 81.5l.2 6.4 5.2-3.5-5.4-2.9zm156-11.1l5.4 3.3M336 39.5l5.4 3.3m216-12.1l26.9-24.1 5.1 2.9 5-2.9 51.7 46.2m-88.7-11.6l17.8-16.3m-27 24.6l9.1-8.4m-15.7 14.5l6.7-6.1m81.5 1.2l-4.6-2.8c-3.3-2-7.4-2-10.7 0l-4.6 2.8-5.1-2.9c-3.2-1.8-7.1-1.9-10.3-.1l-5.2 2.9-4.7-2.7c-3.2-1.9-7.2-1.9-10.5 0l-5.1 2.9-7.5-4.5L579.6 30c2.6-2.3 2.4-6.4-.3-8.5l7.8-6.8m7.1 2.5l-3.1 2.7c-.9.8-2.1 1.3-3.3 1.5l-2 .2m47.3-4c5.6-1 10.9 2.8 11.9 8.4.7 3.9-1.9 7.6-5.8 8.3-2.7.5-5.3-1.4-5.8-4.1-.3-1.9 1-3.7 2.9-4.1 1.3-.2 2.6.7 2.8 2m-28.4-12.6c2-2.4 5-3.9 8.4-4 7.3-.1 10.6 7.5 10.6 7.5 1.5-.9 3.3-1.5 5.3-1.5 5.3 0 9.7 4.1 10.2 9.3.9-.3 1.9-.5 3-.5 4.9 0 8.8 3.9 8.8 8.8s-3.9 8.8-8.8 8.8c-1.6 0-3-.4-4.3-1.1-.3.5-1 1.2-1.4 1.6m-44.2 45.2H589c-1.7 0-3-1.4-3-3 0-1.7 1.4-3 3-3h23.1c1.7 0 3-1.4 3-3 0-1.7-1.4-3-3-3h-30.8c-1.7 0-3-1.4-3-3 0-1.7 1.4-3 3-3h27.8c1.7 0 3-1.4 3-3 0-1.7-1.4-3-3-3h-12.7c-1.7 0-3-1.4-3-3 0-1.7 1.4-3 3-3h32.3M419.1 73.3h-32.2c-1.5 0-2.7-1.2-2.7-2.7v-.1c0-1.5 1.2-2.7 2.7-2.7h8.6c1.5 0 2.7-1.2 2.7-2.7 0-1.5-1.2-2.7-2.7-2.7h-19m16.4 15.2h43.2c1.5 0 2.7 1.2 2.7 2.7 0 1.5-1.2 2.7-2.7 2.7h-31.6M633 59.3h22.5m-47.2 113.4c.9.5 1.9.5 2.8 0l3.9-2.1 3.1 2c.9.6 2.1.6 3 0l3.5-2.1 4.3 2.6c1 .6 2.2.5 3.1-.1l3-2.1 3.4 2.2c.9.6 2.2.6 3.1 0l3.8-2.5 4.4 2.5m-42.5-31.7l4.9-3.1 3.7 2.1c.9.5 1.9.5 2.8 0l3.7-2.1 3.7 2.1c.9.5 1.9.5 2.8 0l3.7-2.1 3.7 2.1c.9.5 1.9.5 2.8 0l3.7-2.1 3.7 2.1c.9.5 1.9.5 2.8 0l3.7-2.1 3.7 2.1c.9.5 1.9.5 2.8 0l1.5-.9c1.3-.8 3-.8 4.3-.1l2.8 1.5m-64.4 10.9l3.7-2.1 3.7 2.1c.9.5 1.9.5 2.8 0l3.7-2.1 3.7 2.1c.9.5 1.9.5 2.8 0l3.7-2.1 5.1 2.9M518.4 78.5l10.1-5.9 25.4 14.3m105 70.2l5.1-2.9m-43.1 7.9l5.1-2.9 3.1 1.8c.9.5 2 .5 2.8 0l3.7-2.1 3.7 2.1c.9.5 1.9.5 2.8 0l3.7-2.1 3.7 2.1c.9.5 1.9.5 2.8 0l3.7-2.1M544.2 64l5.2-2.9c3.2-1.8 7.1-1.7 10.3.1l5.1 2.9 4.6-2.8c3.3-2 7.4-2 10.7 0l4.6 2.8m-55.9-2.6c3.3-2 7.4-2 10.7 0l4.6 2.8m20.2 30.4l-4.9 3.3v-6.1l4.9 2.8zm-5.5-27.2l5.9-3.3m-26 3.9l40.2 23.6-3.1 1.9c-2.9 1.8-2.9 6.1.1 7.8l6.7 3.8c3 1.8 3 6.2 0 7.9l-23.7 13.7c-5.4 3.1-6.4 10-3.1 14.6m8.1-58.5l10.3-5.9m-86.1-14.8l9.9-5.7 25.4 15.1m131-23.1l14.6-8.7 20 11.6m17 36.7l-40.2-22.6M714 81.8l-10.6-6.3m-12.8-1.4l15.3 8.6m-40.6 41.8h39.4c1.5 0 2.7 1.2 2.7 2.7 0 1.5-1.2 2.7-2.7 2.7h-8.3m-62.1-32.2c-1.6 2.9-4.7 5-8.3 5.1-5.4.2-9.9-4-10.1-9.3-.2-5.3 4.1-9.7 9.5-9.9 1.5 0 3 .3 4.3.8-.1-.3-.1-.6-.1-1-.1-3 2.3-5.6 5.4-5.7 1 0 2 .2 2.8.7m9 3.6c-.8-1.4-.3-3.2 1.1-4.1 2.1-1.2 4.7-.5 5.9 1.6 1.7 2.9.7 6.6-2.3 8.3-4.2 2.4-9.6 1-12-3.2-3.5-5.9-1.4-13.5 4.6-16.9m29 26.9c-.4 1.2-1.8 1.7-2.9 1.3-1.7-.7-2.5-2.6-1.9-4.3.9-2.4 3.6-3.6 6-2.6 3.4 1.4 5.2 5.3 3.9 8.7-.4 1.1-1 2.1-1.8 2.9m-46.8-6.7c-.6 1.1-2 1.6-3.2 1-1.7-.8-2.3-2.8-1.5-4.4 1.2-2.3 4.1-3.2 6.5-2.1 3.4 1.7 4.7 5.7 3 9.1-2.5 4.7-8.4 6.6-13.2 4.2m16.6-23.1c0-6.9 5.6-12.6 12.6-12.6 6.8 0 12.3 5.4 12.6 12.1 1.7-.8 3.7-1.3 5.8-1.3 6.4 0 11.7 4.5 12.9 10.6m-5.2 13.2c-2.7 2-4.9 2.6-7.8 2.6-3.9 0-7.5-1.7-9.9-4.5-2.5 3.8-6.9 6.2-11.7 6.2-5.2 0-9.8-2.8-12.3-7.1m-33.9 35.4l11.7-7.1c1.9-1.2 4.3-1.2 6.2 0l11 6.5 30.6-18.3 5.8-3.3c2.6-1.5 5.8-1.5 8.4 0l12.9 7.3M88.6 90.1l11.7-7.1c1.9-1.2 4.3-1.2 6.2 0l11 6.5L148 71.2l5.8-3.3c2.6-1.5 5.8-1.5 8.4 0l12.9 7.3m470.7 57.6l5.9-3.4c2.6-1.5 5.9-1.5 8.5 0l5.9 3.4 5.9-3.4c2.6-1.5 5.9-1.5 8.5 0l5.8 3.4m-76.8-41.2l-5 2.9M675 48.9v10.7l-1.3-.5c-2.6-1-5.5-.9-8 .3l-1.1.6V49.6m-5 2l10.3-5.9 10.9 6.1M478.2 80.2l2.8-1.8c1.2-.8 2.7-.8 4-.1l7.7 4.6L496 81c1.2-.7 2.6-.7 3.7 0l3.2 1.8 10.1 5.9m1 6.7l-12.7-7.8m1.8-22.3l-3.1-1.8c-1.2-.7-2.7-.7-3.9.1l-3 1.9-5.1-3.2m147.1 125.6s8.3-13.7 25.2-20.2m36.2 30.9l5.6 3.2m-47-19.8l10.2-5.6v17.4l-5.1 2.8-5-2.8-.1-11.8zm-5 15l5 3-4.9 2.9-5.1-2.9 5-3zm26.1-48l5 3-4.9 2.9-5.1-2.9 5-3zm-6.2 48.2l5.1-2.8 4.6 2.7m.4-8.1v-12.1l5.3 2.2L697 173m-42.3 21.9l-5-4-5.7 2.9v-4.1m11.2 15.9l10.1-5.7 5.4 2.8m25.7-48.3l5.6-3.2 5.4 3.2v6.4l-5.5 3.1-5.5-3.1v-6.4zm4.9 16.4v-6.1m-10.4 5.5v-19l-5.3-3-.1-6.4 5.5-3.2 5.4 3.3.1 6.7-5.5 3.2m16.4-16.3l5.6 3.1-.1 6.4-5.7 3.2-5.4-3.1v-6.5l5.6-3.1zm-540.9 13.1l-.1-6.3 5.4 2.9-5.3 3.4zM669 195.5l.3-6.3 5.7-3.1v-12.6l5.2-3.5 4.9 3.3 11-6.2 5.1 3.2v25l-5.1-3.1m-20.6 13.5l4.3-2.5m10.9-45.8l-5.1 3.4-.1-6.3 5.2 2.9zm0 57.1l5.1-2.9 5.1 3m-14.3-11.5v-8.5m4.3-11v20.1m-4.9-17v3m-35.3-3v5.5m19.5-9.8v-23.8m-4.9.6v12.2M647.9 150l-5.1 3.2-5.6-3.4 5.5-3.5 11.6 6.8v-6.7l-2.6 1.5M631 185.4l-9.8 6.1-8-4.7c-1.5-.9-3.4-.9-4.9.1l-7.6 4.6-2.4-1.5c-1.5-1-3.4-1-5-.1l-2.7 1.5m30.8-6l4.7-2.7m1.7 32.3l.1-22.9 5 3.3v17.2m-.4-11.6l4.8 2.8v6m-17.4-1.1l-4.8-3m-29-6.2l14.6-7.9m20.5 0l-13.3 7.9M577 110h-12.9c-1.6 0-2.9-1.3-2.9-2.9 0-1.6 1.3-2.9 2.9-2.9h7.6M687 93.7l5.3-3c2.1-1.2 4.7-1.2 6.8 0l6.7 3.9m-408.5 83l13.2-7.4 8.8 5.1 8.7-5.2 17 10.7m-20.3-74c1.4 0 2.6 1.2 2.6 2.6s-1.2 2.6-2.6 2.6-2.6-1.2-2.6-2.6 1.1-2.6 2.6-2.6zm-26.5-37.9l8.6-5.2 9.3 5v10.7m-18.3 18.9V68.8l8.7 5.3 9.1-4.8m-8.6 41.2V84.1l9.2-5.1 9.1 5v22.8m-36.6-2.4V94.2l8.5-5m9.8-19.5V54.4m8.7 50.4V89.5l8.7-5.1m10-20.2v17.3l1.9 22.3-1.9 31.2m8-5l-1.7-26.2 1.6-22.2V64.2m-6.1 39.6h4.9m3.7-21.3h-12.2m5.6 3.6V64.8m-121 67.5l4.4-2.8v5.4l-4.4-2.6zm107.5 8.6l27-15.7M307 154.4V141m-26.5-10.4v-20.9l8.9-5.1 8.9 5.1v25.7m.1-25.8l-8.9 5.1-8.9-5.1m8.9 5.2v30m-9-14.2c1.4 0 2.6 1.2 2.6 2.6 0 1.4-1.2 2.6-2.6 2.6s-2.6-1.2-2.6-2.6c.1-1.5 1.2-2.6 2.6-2.6zm22.2 7.9v18.9m1.6-38.5h22.1c1.5 0 2.7 1.2 2.7 2.7v.2c0 1.5-1.2 2.7-2.7 2.7h-16.3c-1.5 0-2.7 1.2-2.7 2.7v.1c0 1.5 1.2 2.7 2.7 2.7H322c1.5 0 2.7 1.2 2.7 2.7 0 1.5-1.2 2.7-2.7 2.7h-11.4m10.3 8l-4.8 2.3V141m63.7-9.3l9.3-5.2 8.8 5.1v5.1m-6.9-15.4c0 1.4-1.2 2.6-2.6 2.6-1.4 0-2.6-1.2-2.6-2.6s1.2-2.6 2.6-2.6c1.4 0 2.6 1.1 2.6 2.6zm-11.7-5.8l-9 5-8.7-5 8.4-5.4 9.3 4.9m-9.6 16.8v-10.4m26.6 10.4l-8.1 5.2-8.6-5.3m-.1-15.1v18.9m-18.3-6.7v-12.2m27.4 7.9v7.3m0 25.6v-19.5m-61.2-65.6l-.1 5-4.4-2.5m-60.4 29.6V88.9l8.1-5 7.7 5.1v17.9m-62.4 54.2l.3-.5c4.5-4.1 3.7-11.5-1.6-14.6l-13.3-7.8c-4-2.4-4.2-8.2-.1-10.5l27.6-16.1c3.1-1.9 4.4-5.2 4.4-8.9v-1.4l-1.8 1.2c-1.8 1-3.7-.3-3.7-2.4v-1.2m-5.9 16.7l-4.2-2.8c-.8-.5-1.2-1.5-1.1-2.4l.3-5.5V91m17.6 3.4l6.1 3.3v7.4c.6 8-6.1 11.2-6.1 11.2l-20.9 11.6c-3.5 2-8.6 5.2 0 9.1l6.1 3.6m-33.8-32.2l-4 2.4c-1.1.6-2.4.6-3.5 0l-3.7-2.1-.1 1.4c-.3 2.5-3 3.8-5.1 2.6l-1.3-.7v1.3c0 2.6-2.8 4.2-5 3l-1.3-.7-.5.3c-1.7 1-4 .3-4.8-1.5l-1.1-2.4-3.2-1.8c-1.3-.8-1.4-2.7-.1-3.5l3.3-2.2-2.4-1.5c-1.3-.8-1.3-2.8.1-3.6l1.1-.6c.8-.4 1.9-.4 2.7 0l5 2.7v-2.4c0-2 2-3.3 3.7-2.3l2.1 1.2-.1-2.4c0-2 1.8-3.3 3.6-2.3l1.6 1.2v-2.6c0-2 2.5-3.2 4.2-2.3l2.5 1.2.1-3.7c0-1.9 1.1-3.7 2.8-4.6l3.6-2-2.9-1.7c-1.5-.8-1.5-2.9 0-3.8l.9-.5c1.2-.7 2.7-.7 3.8 0l4 2.5.1-2.8c.1-1.9 2.1-3 3.7-2l2.5 1.5 2.6-1.7c1.6-.8 3.2.3 3.2 2.1v2.8l3.9-2.1c1.3-.7 3-.7 4.3 0l4 2.3 3.1-1.8c1.9-1.2 4.3-1.2 6.2 0l2.8 1.7 3.3-1.6c1.8-.9 4-1.1 5.7.1 2 1.2 3.3 3.2 3.3 5.5v3.2l1.2-.7c2.1-1.2 4.8.3 4.8 2.8v1.5l1.6-.9c1.9-1.1 4.3.1 4.5 2.3l.2 2.2 2.1-.4c1.4-.3 2.8.6 3.2 2m-17.4 4.3l6-3.4m-36.2 14.6l-1.1.6c-2.3 1.4-5.4-.2-5.4-2.9v-.9l-6 3.6.1.5c.1 2.7-2.7 4.5-5.1 3.1l-.7-.4-.9.5c-2.2 1.3-5-.1-5.2-2.7l-.1-1.4m18.3 31.4l-18.2-10.6m-2.2 13.8c-2.6.6-4.8-1.9-4-4.4l.3-1-1.2.3c-2.6.7-5-1.8-4.2-4.4l.4-1.2-1.2-1.3c-1.7-1.9-.8-4.8 1.6-5.6l1.5-.4-1-.9c-1.7-1.6-.9-4.5 1.4-5.1 1-.2 2.1.1 2.9.8l3.6 3.8.3-1.5c.5-2.4 3.5-3.1 5.2-1.3l1.1 1.2 1.8-.5c2.3-.6 4.3 1.5 3.7 3.7l-.5 1.8m3.1-32.6l5.8 3.4 11.8 6.9m-11.7-14l-.1 7m-18.2 38.9l5.8-3.4m-12-27.7v-1.8c0-2.7 3-4.3 5.3-2.9l.8.5.1-1.4c.2-2.6 3-4 5.2-2.7l.8.9M359.7 109c-.6.1-1.2.2-1.9.2-5 0-9.1-4.1-9.1-9.2 0-3.4 1.8-6.4 4.6-8-.6-1.3-.9-2.7-.9-4.2 0-5.9 4.8-10.6 10.6-10.6 3.4 0 6.5 1.6 8.5 4.2 1.8-1.8 4.2-3 6.9-3 3.6 0 6.8 2 8.4 5 1.5-.7 3.1-1 4.8-1 6.5 0 11.8 5.3 11.8 11.9s-5.3 11.9-11.8 11.9c-.8 0-1.6-.1-2.3-.2-1.5 2.6-4.3 4.4-7.5 4.4M375.6 90c-.6-1-.3-2.3.7-3 1.5-.9 3.3-.4 4.2 1 1.3 2.1.6 4.8-1.5 6-3 1.8-6.8.8-8.6-2.1-2.6-4.2-1.2-9.7 3-12.3m-12.6 20.9c.2 1-.5 1.9-1.5 2.1-1.4.2-2.7-.7-3-2.1-.3-2 1-3.9 3-4.2 2.8-.5 5.6 1.4 6 4.3.7 4.1-2 7.9-6.1 8.6m30.1-3.3c-3.2-.5-5.4-3.5-4.9-6.7.4-2.2 2.5-3.8 4.7-3.4 1.6.3 2.6 1.7 2.4 3.3-.2 1.1-1.2 1.8-2.3 1.7-.8-.1-1.3-.8-1.2-1.6m130.6 15.5l6.4-3.7c1.3-.8 2.9-.8 4.2 0l24.1 13.1m-17-19.5l7.1 4.1m-24.1-9l4.2-2.4 4.2 2.4m-8.6-4.6l4.2-2.7v19.2m4.6-16.8l-4.3-2.5m-4.5-5.2l4.2-2.4v5.1m4.6-2.6l-4.3-2.5m16.9 2.7l-4.3-2.5m-16.9 19.6l4.3-2.5 4.2 2.6m16.9-4.8l4.2-2.4 4.2 2.4m-9.1-4.7l4.2-2.7v19.9m5-17.4l-4.3-2.5m-4.2 12.2l4.3-2.5 4.2 2.6M532 92.2l4.2-2.4 4.2 2.4m-8.5-4.8l4.2-2.5v19.5M532 97l4.3-2.5 4.2 2.6m-14 47.4l-3.4 2c-.9.5-1.9.5-2.8 0l-1.9-1.2c-.9-.5-2-.5-2.8 0l-2.1 1.3c-.8.5-1.9.5-2.8 0l-2.2-1.3c-.8-.5-1.9-.5-2.7 0l-2.1 1.2c-.8.5-1.9.5-2.7 0l-2.5-1.4c-1.1-.6-2.4-.4-3.2.5m-7.3-5l6.8-5.8c3.1-3.1 7.9-3.7 11.7-1.6l27 15.5c1.5.8 3.3.9 4.8 0l5.1-2.8c1.5-.8 3.3-.8 4.8 0l14.3 8.3c1.4.8 3.2.9 4.7.1l5.1-2.7c1.5-.8 3.2-.8 4.7.1l9.4 5.4m-55.9 10.4l-38.8-.2c-1.7 0-2.5-1.4-2.5-3.1v-.1c0-1.7.2-2.4 2-2.4H530c1.7 0 3.6.6 3.6 2.4v.3c.1 1.7-1.3 3.1-3.1 3.1zm68.4-5.8h9.7c1.7 0 1.9.7 1.9 2.3v.5c0 1.7-.3 3.2-1.9 3.2h-39.9c-1.7 0-3.3 1.1-3.3 2.7v.5c0 1.7 1.6 3.5 3.3 3.5h16.6c1.7 0 2.7.8 2.7 2.5v.1c0 1.7-1 2.8-2.7 2.8h-81c-1.7 0-2.3-1.1-2.3-2.8v-.1c0-1.7.6-2.6 2.3-2.6h50.9c1.7 0 3.5-1.7 3.5-3.3v-.6c0-1.7-1.9-2.7-3.5-2.7h-14.3c-1.7 0-3.5-1.6-3.5-3.2v-.6c0-1.7 1.9-2.2 3.5-2.2h61.7m67.1 5.8l11.4-6.8M470 99.7c.8-7.9 7.5-13.9 15.6-13.6 8.1.2 14.6 6.8 14.7 14.9 1-.6 2.2-.9 3.4-.8 3.7.1 6.7 3.2 6.5 7 0 .4-.1.8-.1 1.2 1.6-.7 3.4-1.1 5.2-1 1 0 2 .2 2.9.4m-25.4-19.7c7.3 4.2 9.7 13.4 5.5 20.7-2.9 5.1-9.4 6.8-14.5 3.9-3.6-2.1-4.8-6.6-2.7-10.2 1.4-2.5 4.6-3.4 7.1-1.9 1.7 1 2.3 3.2 1.3 5m28.3 31.1h12.8c1.5 0 2.7-1.2 2.7-2.7 0-1.5-1.2-2.7-2.7-2.7h-14.4c-1.5 0-2.7-1.2-2.7-2.7v-.6c0-1.5 1.2-2.7 2.7-2.7h25.7c1.5 0 2.7 1.2 2.7 2.7v.6c0 1.5-1.2 2.7-2.7 2.7h-1.6m-54.7-9.5c0-1.5 1.2-2.7 2.7-2.7h20.1c1.5 0 2.7 1.2 2.7 2.7 0 1.5-1.2 2.7-2.7 2.7h-20.1c-1.5 0-2.7-1.2-2.7-2.7zM596 152.7l-15-8.7c-6.6-3.8-6.6-13.3-.1-17.1l5.7-3.4c1.8-1.1 1.8-3.7 0-4.8m-5.2-20.6l10.2 6.3c1.8 1.1 1.9 3.7 0 4.8l-1.6.9c-1.8 1.1-1.8 3.7 0 4.8l3.2 1.8c3.3 1.9 3.3 6.7 0 8.6l-2.5 1.4c-6.6 3.8-6.6 13.3-.1 17.1l5.1 3m10.2.1l-8.1-4.8c-5.2-3.1-5.2-10.7.1-13.7l5.4-3.1c3.3-1.9 3.3-6.7-.1-8.6l-3.2-1.9c-1.8-1.1-1.8-3.7 0-4.8m-28.9 33.9l-.2-.1c-6.6-3.8-6.6-13.3 0-17.1l5.1-3m29.6-11.2c2.3-1.2 2.3-4.5.1-5.8l-4.8-2.9-5.3-2.8c-2.3-1.2-2.3-4.5.1-5.7l8.7-4.3m50.8 20.6l-6.7 3.9m-335.4 42.2l-19 11.3c-4.6 2.8-10.4 2.8-15 .1m53.5-23.1l9.2-5.5 10.5-6c4.7-2.7 10.5-2.7 15.2 0l15.3 8.7m-14.5-.8l-3.4 2c-.9.5-1.9.5-2.8 0l-1.9-1.2c-.9-.5-2-.5-2.8 0l-2.1 1.3c-.8.5-1.9.5-2.8 0l-2.2-1.3c-.8-.5-1.9-.5-2.7 0l-2.1 1.2c-.8.5-1.9.5-2.7 0l-2.5-1.4c-1.1-.6-2.4-.4-3.2.5m-98.2-23.3l3.5-1.9v-.7c-.1-1.6 1.7-2.6 3-1.8l.6.4v-1.1c0-1.5 1.6-2.5 2.9-1.8l.9.5 3.8-2.2c4.2-2.4 9.2-2.7 13.6-.8m-18.3 30.6l6.1 3.5h9.9c1.5 0 2.9.7 3.8 1.9l7.8 10.4-5.3 11-6.1 3.1-6.9 1.8-6.1 5.5-6.1-3.6m19.1-13.3l6 6.5m-9.1-3.1l8.7 3.2m-15.6-5.8l1.5 5.1m-24 14.8v-12.9c0-1.1 1.5-2.1 2.5-2.6l8.5-4.4v-5.3c0-1.1.2-2.1 1.2-2.6l4.3-2.6-.1-1.7c0-1.1.4-2.1 1.3-2.6l4.2-2.6m-8.5 30.1l-.1-5.4c0-1.1.3-2.1 1.2-2.7l7.4-4.6v-5.3c0-1.1.9-2.1 1.8-2.6l4.9-2.7v-1.2m-24.4-19.9v6.1c0 .6.3 1.2.9 1.5l4.3 2.5c.5.3.8.9.9 1.5l.1 6.1-3.1 1.8m-6.2-14l-.5.3c-1.1.7-2.6-.2-2.6-1.5v-.6l-.5-.3c-1.1-.7-1.7-2.3-.5-3l3-2v-.5c0-1.3 2-2.2 3.2-1.5l.7.3.9-.3c1.1-.7 3.1.1 3.1 1.4v.5l1.8-1.3c.5-.3 1.1-.3 1.6 0l2 1.2v-.6c0-1.3 1.3-2.1 2.5-1.5l.5.3 2.1-1.3c.5-.3 1.2-.3 1.7 0l1.4.8c.5.3.9.9.9 1.5v2.8l.6.3c1.2.7.9 2.3-.3 3l-.7.3v.6c0 1.3-1.2 2.1-2.3 1.5l-.4-.3.1.4c0 1.4-1.4 2.2-2.6 1.5l-3.3-2v.6c0 1.3-1.5 2.1-2.6 1.5l-.5-.3m-3.2-5.6l-3.1 1.8m-9.1 12.4l-2.4 1.4c-.5.3-1 .1-1.5.1-1-1.2-1.1-2.2-.1-2.8l.8-.6v-.9c0-1.2 1.1-1.9 2.1-1.3l.6.5v-.9c0-1.2 1.5-1.9 2.5-1.3l1 .5.7-.4c1-.6 2.3.1 2.3 1.3v.8l2.4-1.3c.5-.3 1.1-.3 1.5 0h.1c1 .6 1.2 2 .2 2.6l-.4.4v.9c0 1.2-1.6 1.9-2.6 1.3l-1.2-.4m3.1 5.3l-6-3.5-.1-3.5m-3.5 30.2v-5.7c0-1 .5-2 1.4-2.5l1.7-1.1v-8.6c0-1.1 1.2-2.1 2.1-2.7l5.2-2.6v8m56 3.7l-10.9-17m-6.2 10.6l6.1-10.6 17-3.7m-27.3 9.6v-1c0-1.5 1.7-2.3 3-1.6l.8.4.3-.2c1.2-.8 2.6.1 2.6 1.6v.8m81.1 34.2h21.2c1.5 0 3.1-2.7 3.1-4.2v-.1c0-1.5-1.6-3-3.1-3h-25.4c-1.5 0-2.6-1-2.6-2.6v-.4c0-1.5 1-2.6 2.6-2.6h35.4c1.5 0 2.9-1.5 2.9-3v-.2c0-1.5-1.3-1.7-2.9-1.7h-10.7c-1.5 0-2.9-2.4-2.9-3.9v-.3c0-1.5 1.4-1.3 2.9-1.3h16.6m-17.8-9.2c-.2 1.4-1.5 2.6-3 2.6h-12.7c-1.6 0-3.1.5-3.1 2.1s1.5 4 3.1 4h6.5c1.6 0 3.2.2 3.2 1.8v.6c0 1.5-1.5 3.8-3 3.8h-26.2c-1.6 0-3.1-2.4-3.1-4.1v-.1c0-1.6 1.4-1.9 3.1-1.9h8c1.6 0 3.6-2.4 3.6-4s-2-2.1-3.6-2.1H317c-1.5 0-3.3-2-3.3-3.5v-.1c0-1.6 1.9-2.5 3.5-2.5h59.3c1.7-.1 3 1.6 2.8 3.4zm-9.5 39.7l5.1-2.6 4.9 2.9m-65.6-25.6l5.3-3.1 5.4 3.2m-4.5-2.8v4.9m-59.1-46.5l6.8 4c4.1 2.4 6.6 6.8 6.6 11.6M152 186.6c-2.6-1.8-4.2-4.9-4.1-8.2.2-5.4 4.7-9.7 10.1-9.5 1.2 0 2.2.3 3.3.7v-.6c.2-5.4 4.7-9.7 10.1-9.5 1.2 0 2.3.3 3.3.7.8-7.6 7.3-13.4 15.1-13.2 7.9.2 14.1 6.6 14.2 14.4 1-.5 2.1-.8 3.3-.8 3.6.1 6.4 3.1 6.3 6.7 0 .4-.1.8-.1 1.1 1.5-.7 3.2-1.1 5-1 1 0 1.9.2 2.8.4M196.7 149c7 4 9.4 13 5.3 20-2.8 4.9-9.1 6.6-14 3.8-3.4-2-4.6-6.4-2.7-9.8 1.4-2.4 4.5-3.2 6.9-1.9 1.7 1 2.3 3.1 1.3 4.8m-24.9 6.5c-.8-1.1-.5-2.5.5-3.3 1.5-1.1 3.6-.7 4.7.8 1.5 2.2 1 5.2-1.1 6.7-3.1 2.2-7.4 1.5-9.6-1.6-3.1-4.4-2.1-10.5 2.3-13.7m268.2-33c0-2.7 2.2-5 5-5h5.5m-21.2 11.1h-4.6c-1.5 0-2.8-1.3-2.8-2.8 0-1.5 1.3-2.8 2.8-2.8h7.1c1.3 0 2.4-1.1 2.4-2.4v-.6c0-1.3-1.1-2.4-2.4-2.4H398c-1.3 0-2.4-1.1-2.4-2.4v-1.2c0-1.3 1.1-2.4 2.4-2.4h49.7m-13.1-4.4l-.1-.8c0-1.9 1.9-3.1 3.6-2.1l.5.4v-.8c0-1.9 2.3-3.1 4-2.1l.9.4 9-5.1m-35.3 40.5l30.5-17.7v-.9c0-1.9 2-3.1 3.6-2.2l1 .6v-.7c0-1.9 2-3.2 3.7-2.2l.5.3-.1-.9c0-1.9 1.9-3.1 3.6-2.1l.4.4v-.8c0-1.9 2.3-3.1 4-2.1l1.1.5 13.1 8.9m6.3 12.3h-16.3c-1.4 0-2.6 1.2-2.6 2.6v.4c0 1.4 1.2 2.6 2.6 2.6h8.4c1.4 0 2.5 1.1 2.5 2.5 0 1-.8 1.8-1.8 1.8h-44.8c-1.2 0 2.2-3.5 2.2-4.6 0-1.2 1-2.1 2.1-2.1l20.3 2.5c1.4 0 2.5-1.1 2.5-2.5v-.5c0-1.4-1.1-2.5-2.5-2.5h-7.1c-1.5 0-2.8-1.3-2.8-2.8 0-1.5 1.3-2.8 2.8-2.8h41.9m-92.5-2.6h7.8c1.5 0 2.8 1.3 2.8 2.8 0 1.5-1.3 2.8-2.8 2.8h-5.4m-.6-24.1l9.1-9.1c.8-.8 2-.9 2.9-.4l2.2 1.2c.8.4 1.7.4 2.4 0l1.9-1.1c.8-.4 1.7-.4 2.5 0l2 1.2c.8.5 1.7.4 2.5 0l1.9-1.1c.8-.5 1.8-.5 2.6 0l1.8 1.1c.8.5 1.7.5 2.5 0l3.1-1.8m-8.6 5l-3.3 1.9c-.8.4-1.7.4-2.4 0l-1.9-1.1c-.8-.5-1.7-.4-2.5 0l-1.7 1.1c-.8.5-1.7.5-2.5.1l-3.1-1.8m-4.2-12.1l2-2c2.8-2.8 7.2-3.4 10.6-1.4l24.5 14.1c1.3.8 3 .8 4.3 0l4.6-2.6c1.4-.8 3-.7 4.3 0l13 7.5m-34.7-15.9h14.7c1.4 0 2.6 1.2 2.6 2.6 0 1.4-1.2 2.6-2.6 2.6h-6.2m54.2 56.7h46.3m-292.3-36.3l1.9-1c2.9-1.5 6.5-1.5 9.4.1l9.4 5.3m6.6 28.2v12.8m-10.3 3.7l-.6-8M262 89.3l8.4 4.5v22.8m142 34.7h-16.7c-1.5 0-2.2.9-2.2 2.5v-.1c0 1.5.7 3.7 2.2 3.7h23.5c1.5 0 3.6.2 3.6 1.8 0 1.5-2.1 3.7-3.6 3.7h-18.4m57.2 2.8c.8-.4 1.8-.7 2.8-.7 3.1.1 9.8.1 9.7 3.1 0 .3-.1.7-.1 1M451.7 155c6 3.4 12.4 8.4 8.9 14.3-2.4 4.1-7.8 5.6-12 3.2-3-1.7-4-5.4-2.3-8.3 1.2-2-.5-.2 1.6 1 1.4.8 6.3.1 5.4 1.5m-34.7 5.5c1.2-6 6.5-10.6 12.9-10.6 2.1 0 4 .5 5.8 1.3.2-6.7 1.4-9.6 8.2-9.6 6.9 0 12.6 5.6 12.6 12.6M394.3 146l6.7-3.9c2.1-1.2 4.7-1.2 6.8 0l5.3 3m152.2-29.5l-6.8 4-7.1-4m-94.2 37.9l7.1 4.1 11.1 9.9m37.4 18.3c2.5-1.4 5.6-1.4 8.1 0l9.7 5.7 9.8-5.7c2.5-1.4 5.6-1.4 8.1 0l9.8 5.7 9.8-5.7c2.5-1.4 5.5-1.4 8 0l10 5.7M367.8 57.2l14.6-8.4c1.9-1.1 4.3-1.1 6.2 0l26.2 15.1M349.9 72l10.8-6.4c1.9-1.1 4.2-1.1 6.1 0l9.8 5.8m-201.2-3.9l34.8-20.1c3.4-2 7.6-2 11 0l43.1 24.8m-38.5-12.3l29.9 16.8M224 55l-3.2 1.8c-.8.5-1.8.5-2.6 0l-1.8-1.1c-.8-.5-1.8-.5-2.6 0l-1.9 1.2c-.8.5-1.8.5-2.6 0l-2.1-1.2c-.8-.4-1.7-.4-2.5 0l-1.9 1.1c-.8.4-1.7.5-2.5 0l-2.3-1.3c-1-.5-2.2-.4-3 .4m60.8 27.7l13.3-8c2.8-1.7 6.4-1.8 9.3-.2l5.2 2.8m168.9 5.7l31.3-18.6c1.1-.6 2.4-.6 3.4.1l14.2 8.3m16.1 46.3l4.6-2.7v4.8m210 46.2l-5.1 2.9-4.9-2.9 5-3 5 3zm-26.2 22.2l4.4-1.8c.4-.2.9.1.9.6v11.1l4.7 2.9m-9.6-18.7l5.5-3.3 6 3.5v12.6l5 3.1-.5 6.3m.3-24.4v-12.8m-20 1.1l19.9 10.8v9.6l6.1 3.8v12.4M710.4 89.8l34.8-20.1c3.4-2 7.6-2 11 0l43.1 24.8m-66 113.6c.9.5 1.9.5 2.8 0l3.9-2.1 3.1 2c.9.6 2.1.6 3 0l3.5-2.1 4.3 2.6c1 .6 2.2.5 3.1-.1l3-2.1 3.4 2.2c.9.6 2.2.6 3.1 0l3.8-2.5 4.4 2.5m-13.2-22.6l-3.7-2.1-3.7 2.1c-.9.5-1.9.5-2.8 0l-3.7-2.1-3.7 2.1c-.9.5-1.9.5-2.8 0l-3.7-2.1-3.7 2.1c-.9.5-1.9.5-2.8 0l-3.7-2.1m18.7 13.7l5.1-2.9 3.1 1.8c.9.5 2 .5 2.8 0l3.7-2.1 3.7 2.1c.9.5 1.9.5 2.8 0l3.7-2.1 3.7 2.1c.9.5 1.9.5 2.8 0l3.7-2.1m2.5-4.6h6.3c1.6 0 4-2 4-3.6v-.3c0-1.6-2.4-2.2-4-2.2h-19c-1.6 0-3.2-2-3.2-3.6v-.3c0-1.6 1.6-2.8 3.2-2.8h12.4c1.6 0 3.9-1.4 3.9-3v-.2c0-1.6-2.3-2.3-3.9-2.3H742c-1.6 0-2.3-1.9-2.3-3.5v-.1c0-1.6.7-2.5 2.3-2.5h58.4c1.6 0 3.2.9 3.2 2.5v.2c0 1.6-1.6 3.9-3.2 3.9H796c-1.6 0-1.6.2-1.6 1.8v.2c0 1.6 0 2.8 1.6 2.8h7.6m-83.5-73l-.8.5c-1.9 1.1-4.4-.3-4.4-2.5v-1l-.8-.5c-1.9-1.1-1.9-3.9 0-5l6-3.4m25.3 2.2l-5.2 3.3-15.3 8.6m-.3-11.6v10.3c0 1 .6 2 1.5 2.5l7.3 4.2c.9.5 1.4 1.4 1.5 2.5l.2 10.4-10 6m-5.6-38V91c0-2.3 2.4-3.7 4.4-2.5l.7.5.8-.5c1.9-1.2 4.5.2 4.5 2.5v.8l3.7-2.2c.9-.5 2.4-.5 3.3 0l4 2.1v-.9c0-2.2 2-3.6 3.9-2.5l.7.5 3.5-2.2c.9-.5 2-.6 2.9 0l2.3 1.3c.9.5 1.5 1.5 1.5 2.6l-.1 4.2 1 .6c2 1.1 1.8 4-.2 5.1l-.9.4v1c0 2.2-2.3 3.6-4.2 2.5l-.8-.5v.6c0 2.3-2.2 3.7-4.1 2.5l-5.5-3.4v.9c0 2.2-2.7 3.6-4.7 2.5l-.9-.2m-10.7-6.4l5.2-3m10.4 0l-5.3-3m-592.5-5.1v10.6l-1-.5c-2.6-1-5.3-.9-7.8.3l-1.5.6V89.8m-4.2 1.9l10.3-5.9 10.9 6.1m23.1-17.8l-3.2 1.8c-.8.5-1.8.5-2.6 0l-1.8-1.1c-.8-.5-1.8-.5-2.6 0l-1.9 1.2c-.8.5-1.8.5-2.6 0l-2.1-1.2m-23.8 86.6l10.8-6.4c1.9-1.1 4.2-1.1 6.1 0l9.8 5.8m561.1-13.9c.2-5.1 4.5-9.1 9.6-8.9 1.1 0 2.1.3 3.1.6v-.5c.2-5.1 4.5-9.1 9.6-8.9 1.1 0 2.2.3 3.1.6.7-7.1 7-12.6 14.4-12.4 7.5.2 13.5 6.2 13.6 13.5.9-.5 2-.8 3.2-.7 3.4.1 6.1 2.9 6 6.3 0 .4-.1.7-.1 1.1 1.5-.6 3.1-1 4.8-.9 6 .2 10.8 5.1 10.6 11-.2 5.9-5.2 10.6-11.2 10.4-4-.1-7.5-2.4-9.3-5.6-2.7 4.9-8.1 8.2-14.2 8-4.2-.1-7.9-1.9-10.7-4.6-1.7 2.5-4.7 4.1-8 4-4-.1-7.4-2.7-8.6-6.2-1.8 1.7-4.2 2.8-6.9 2.7-5.1-.2-9.2-4.4-9-9.5zm46.5-27.6c6.7 3.8 9 12.2 5.1 18.8-2.7 4.6-8.7 6.2-13.4 3.6-3.3-1.9-4.4-6-2.5-9.2 1.3-2.3 4.3-3 6.6-1.7 1.6.9 2.2 2.9 1.2 4.5m28.4 21.6c-5.4 2.7-11.9.6-14.7-4.7-1.9-3.7-.4-8.2 3.3-10.1 2.6-1.3 5.8-.3 7.2 2.3.9 1.8.2 4-1.6 4.9-1.3.6-2.9.1-3.5-1.1m-42.9-6.9c-.7-1-.5-2.4.5-3.1 1.4-1 3.4-.7 4.5.7 1.5 2 1 4.8-1.1 6.3-2.9 2.1-7 1.4-9.1-1.5-3-4.1-2-9.9 2.2-12.8m45.6-4h11.6m10.9 12.8h12.2m-6.4 12.7l5.5-3.2m-49.1-35.9l-6-3.5m-41.5 16.5v6.8l-6.2-3.4 6.2-3.4zm61.7-28.8l-6.2 3.4v-6.8l6.2 3.4zm-666 43.7c-1.7 3.1-4.9 5.2-8.7 5.3-5.7.2-10.4-4.2-10.6-9.8-.2-5.6 4.3-10.2 9.9-10.4 1.6 0 3.1.3 4.5.9-.1-.3-.1-.7-.1-1-.1-3.2 2.4-5.8 5.7-5.9 1.1 0 2.1.2 3 .7m9.4 3.8c-.9-1.5-.3-3.4 1.2-4.2 2.2-1.2 4.9-.5 6.2 1.6 1.8 3 .7 6.9-2.4 8.7-4.4 2.5-10.1 1-12.6-3.3-3.6-6.2-1.5-14.1 4.8-17.7m30.4 28.2c-.5 1.2-1.8 1.8-3.1 1.3-1.8-.7-2.7-2.7-2-4.5 1-2.5 3.8-3.7 6.3-2.7 3.6 1.4 5.4 5.5 4 9.1-.4 1.2-1.1 2.2-1.8 3.1m-49.1-7.1c-.6 1.2-2.1 1.7-3.3 1.1-1.7-.9-2.4-2.9-1.5-4.7 1.3-2.4 4.3-3.4 6.8-2.2 3.5 1.8 4.9 6 3.1 9.5-2.6 5-8.7 6.9-13.8 4.4m17.4-24.1c0-7.3 5.9-13.2 13.2-13.2 7.1 0 12.9 5.7 13.1 12.7 1.8-.9 3.9-1.4 6-1.4 6.7 0 12.3 4.8 13.5 11.1m-5.3 13.9c-2.9 2.1-5.2 2.7-8.2 2.7-4.1 0-7.8-1.8-10.4-4.7-2.7 3.9-7.2 6.5-12.3 6.5-5.5 0-10.3-3-12.9-7.4m205.4-82.6l5.7-3.3m32.4-3.7l-5.7 3.3m310.4-25.6l5.7-3.3M427.5 62.9l5.7-3.3M43.1 151.3v-.2c0-1.5-1-2.8-2.6-2.8h-8.7c-1.5 0-1.5-1.2-1.5-2.8 0-1.5.6-2.7 2.2-2.7h40.2c1.5 0 2.1 1.1 2.1 2.7v.1c0 1.5-.6 2.8-2.1 2.8H59.4c-1.5 0-2.9 1.3-2.9 2.8 0 1.5 1.3 2.6 2.9 2.6H114c1.5 0 1.6 1.4 1.6 2.9v.1c0 1.5-.1 4.3-1.6 4.3H83.4c-2 0-3.7-.2-3.7 1.8v-.1c0 2 1.8 3.8 3.7 3.8h39.5m-72.2-40.9h38.2c1.6 0 2.9-1.3 2.9-2.9 0-1.6-1.3-2.9-2.9-2.9H31c-1.6 0-2.9-1.3-2.9-2.9 0-1.6 1.3-2.9 2.9-2.9h53.6c1.6 0 2.9-1.3 2.9-2.9 0-1.6-1.3-2.9-2.9-2.9h-12c-1.6 0-2.9-1.3-2.9-2.9v-.3c0-1.6 1.3-2.9 2.9-2.9l29.3.1 7.7.1 17.3.1M107.7 114H96.4c-1.6 0-2.9-1.3-2.9-2.9 0-1.6 1.3-2.9 2.9-2.9h23.3m666.9 12.7h-9.1M269.5 68c1.5-7.7 8.8-13.6 17.6-13.6 3.5 0 6.7.9 9.4 2.5.9.5 1.7 1.1 2.5 1.7m1.8-3.7l5.4-6.3m-10.1 4.2l6.6-12.3m-9.5 2.3l3.2-12.4m-4.7 18.2l.8-3m-7 5.5V39.7m-24.2 20.9l3.6 1.8m-14.7-7.3l8.3 4.1m3 1.5l3.4 1.7m4.2-3l-11.3-8.3m12.4 3.8l-10.8-12.6m15.9 11.3l-5-9.4m4.4-13.3l4.9 19.1m355.6 21.4h-12.7c-1.7 0-3-1.4-3-3 0-1.7 1.4-3 3-3h17.9m-19.2 56.7h17.2c1.7 0 3-1.4 3-3 0-1.7-1.4-3-3-3h-23.2c-1.7 0-3-1.4-3-3 0-1.7 1.4-3 3-3h32.3m37.3-40.2h13.4c1.7 0 3-1.4 3-3 0-1.7-1.4-3-3-3h-14.5c-1.7 0-3-1.4-3-3 0-1.7 1.4-3 3-3h59.2c1.7 0 3 1.4 3 3 0 1.7-1.4 3-3 3h-30.7c-1.7 0-3 1.4-3 3 0 1.7 1.4 3 3 3h16.5m65.1 50.7h13.8c1.7 0 3-1.4 3-3 0-1.7-1.4-3-3-3h-12.7c-1.7 0-3-1.4-3-3 0-1.7 1.4-3 3-3h32.3m27.8 24.6h-53.2c-1.7 0-3-1.4-3-3 0-1.7 1.4-3 3-3h45.3M690 99h16.3c1.7 0 3 1.4 3 3 0 1.7-1.4 3-3 3h-22.4c-1.7 0-3 1.4-3 3 0 1.7 1.4 3 3 3h38c1.7 0 3 1.4 3 3 0 1.7-1.4 3-3 3h-32.1" />
</svg>
