<?xml version="1.0" encoding="UTF-8"?>
<svg xmlns="http://www.w3.org/2000/svg" id="Calque_1" data-name="Calque 1" viewBox="0 0 500 500">
  <defs>
    <style>.cls-1{fill:#4386fa;}.cls-2{isolation:isolate;opacity:0.1;}.cls-3{fill:#fff;}</style>
  </defs>
  <path class="cls-1" d="M140.48,413.72a26.06,26.06,0,0,0,22.46,13H337a26,26,0,0,0,22.5-13l87-150.71a26,26,0,0,0,0-26l-87-150.7a26,26,0,0,0-22.4-13H163a26,26,0,0,0-22.5,13L53.49,237a26,26,0,0,0,0,26l87,150.71Z"/>
  <path class="cls-2" d="M417.19,313.94l-57.6,99.73a26,26,0,0,1-22.5,13h-12.4L202.55,304.21s60,21.05,93-11.84,8.79-90.9,8.79-90.9Z"/>
  <path class="cls-3" d="M332.92,320.19a4.18,4.18,0,0,1,0,5.91l-7,7a4.18,4.18,0,0,1-5.92,0l-26.73-26.73a4.15,4.15,0,0,1-.71-.94,72.68,72.68,0,1,1,12.7-12.73,4.31,4.31,0,0,1,1,.75l26.66,26.74Zm-30.49-72a54.69,54.69,0,1,0-54.68,54.68A54.73,54.73,0,0,0,302.43,248.22Zm-75-3.06v37.58a40.1,40.1,0,0,1-14.62-14.84V245.3Zm27.34-18.6v61.07a40.31,40.31,0,0,1-14.61,0V226.56Zm27.68,41.22a40.15,40.15,0,0,1-14.62,14.8V254.46h14.6v13.39Z"/>
</svg>
