<?xml version="1.0" encoding="UTF-8"?>
<svg xmlns="http://www.w3.org/2000/svg" xmlns:xlink="http://www.w3.org/1999/xlink" id="Calque_1" data-name="Calque 1" viewBox="0 0 500 500">
  <defs>
    <style>.cls-1{fill:#444b5e;}</style>
    <symbol id="A_7" data-name="A 7" viewBox="0 0 80 53">
      <path class="cls-1" d="M69.49,48.08c-1.73,0-2.76-.8-3.09-2.24A2.38,2.38,0,0,1,68,45.31a2.23,2.23,0,0,1,2.23,2.74,5.23,5.23,0,0,1-.78,0M78.39,53h-.15c-1.23,0-1.42-.71-4.09-1.36s-5.29,0-8.19-1.24c-8.65-3.63-10.49-16.15-18.35-20.59C41.73,26.49,36,25,30.71,23.34c-3.5-1.09-7-2.36-10.15-5.09-2.46-2.13-3.14-3.78-5.71-6.44S4.18,13.89.25,10.38A.79.79,0,0,1,0,9.8a.74.74,0,0,1,.27-.57c.85-.75,2.46-2.52,4-3.07-.48-.92-3.24-3.64-2.68-5S9,.7,15.34,4.51c2.94,1.78,5.29,4.34,9.87,5C31.15,10.25,38,9,44.85,8c-1-3-3.06-5.06-4.7-7.49-.51-.55,1-.61,2.76-.28A27.56,27.56,0,0,1,50.67,3c2.9,1.69,3.34,6,6.9,7,1.73-2.65,6-3.54,9.31-2.13a5.36,5.36,0,0,1,.54.26c.4.34.17.75-.08,1L67,9.45c-1.86,2-2.29,6.72-1.46,9,.94,2.61,1.87,6.78,2.81,10.23,1,3.7,1.4,8.38,2.63,10.27,1.85,2.84,3.89,3.81,5.67,5.41s3.4,3.16,3.34,6.82c0,1.13-.58,1.78-1.61,1.81m.19-3.84c-.36-2.53-2-3.92-3.89-5.26C73,42.73,71.19,41.6,70,39.76s-2-8.3-3.84-14.64c-1.56-5.27-3.87-10.48-7.83-13a.42.42,0,0,0-.59.14.35.35,0,0,0-.06.14c-.28,1.47-.22,4.16-.68,3.29a34.2,34.2,0,0,0-2-4.65C52.7,6.6,49.33,3.2,43.89,1.86a.48.48,0,0,0-.58.37.45.45,0,0,0,.07.39c2.51,3.48,4.76,7.23,5,13a.5.5,0,0,1-.9.33c-1.19-1.46-1.48-4.94-3.22-6a23.7,23.7,0,0,0-4.13-.06c-5.7.34-11.55,2.05-16.88.34C19.65,9,15.83,5.69,12.76,4.36c-3.62-1.56-5.33-3-9.9-2.94-.46.63,1.91,3.35,2.71,4.52.26.38-.29.78-.8,1C3.53,7.53,2.29,9.07,1,9.67a3.28,3.28,0,0,0,1.1.81c3,1.74,10.93-2,13.06.13a22.91,22.91,0,0,1,3.1,3.74,18.61,18.61,0,0,0,3.56,3.74c.58.47,1.17.91,1.79,1.33,2.33,1.59,3.61,1.71,6.62,2.83,3.84,1.43,8.59,2.68,12.71,4.25a31.53,31.53,0,0,1,7.56,3.85A16.85,16.85,0,0,1,52,31.64C58.41,37.92,59.69,49,69.72,50c1,.1,2,.17,3,.2a7.41,7.41,0,0,1,3,.76c.31.13,2.15,1.25,2.77.71.41-.36.1-2.3.08-2.51"/>
    </symbol>
  </defs>
  <use width="80" height="53" transform="matrix(5.01, 0, 0, -5.01, 49.55, 382.74)" xlink:href="#A_7"/>
</svg>
