<?xml version="1.0" encoding="UTF-8"?>
<svg xmlns="http://www.w3.org/2000/svg" id="Calque_1" data-name="Calque 1" viewBox="0 0 500 500">
  <defs>
    <style>.cls-1{fill:#20a854;}.cls-2{fill:#b7c3c1;}.cls-3{fill:#1d9051;}</style>
  </defs>
  <g id="mongo_DB" data-name="mongo DB">
    <path id="feuille_gauche" data-name="feuille gauche" class="cls-1" d="M336.69,209.13C315.6,116.07,271.57,91.29,260.4,73.77c-6.07-9.53-12.26-24-12.26-24-.6,8.25-1.68,13.48-8.72,19.76-14.11,12.57-74,61.42-79.09,167.16-4.69,98.6,72.46,159.4,82.71,165.69,7.83,3.85,17.43.07,22-3.46,37.19-25.54,88.05-93.62,71.6-189.78"/>
    <path id="tige" class="cls-2" d="M251.33,349.85c-1.93,24.41-3.33,38.62-8.25,52.54,0,0,3.25,23.23,5.5,47.85h8a449.11,449.11,0,0,1,8.77-51.54C255,393.59,251.73,371.26,251.33,349.85Z"/>
    <path id="feuille_droite" data-name="feuille droite" class="cls-3" d="M265.39,398.72h0c-10.53-4.87-13.57-27.64-14-48.87a998.14,998.14,0,0,0,2.25-105.21c-.55-18.4.27-170.51-4.53-192.78,1.94,4.36,6.64,14.59,11.33,21.9,11.22,17.53,55.21,42.31,76.28,135.38C353.11,305.06,302.55,373,265.39,398.72Z"/>
  </g>
</svg>
