<?xml version="1.0" encoding="iso-8859-1"?>
<!-- Uploaded to: SVG Repo, www.svgrepo.com, Generator: SVG Repo Mixer Tools -->
<svg version="1.1" id="Layer_1" xmlns="http://www.w3.org/2000/svg" xmlns:xlink="http://www.w3.org/1999/xlink"
	 viewBox="0 0 512 512" xml:space="preserve">
<rect x="224.236" y="84.672" transform="matrix(-0.7071 -0.7071 0.7071 -0.7071 251.8026 619.7746)" style="fill:#D7D5D9;" width="60.049" height="346.13"/>
<path style="fill:#FF3F62;" d="M301.182,253.278l-47.095,47.095c-8.99,8.99-8.99,23.701,0,32.692l153.555,153.555
	c8.99,8.99,23.702,8.99,32.692,0l47.095-47.095c8.99-8.99,8.99-23.701,0-32.692L333.874,253.278
	C324.884,244.288,310.173,244.288,301.182,253.278z"/>
<polygon style="fill:#D7D5D9;" points="82.211,19.389 20.989,80.611 57.004,116.626 72.013,101.618 227.017,257.43 257.431,227.017
	102.427,71.203 118.226,55.404 "/>
<g>

		<rect x="327.715" y="127.531" transform="matrix(-0.7071 -0.7071 0.7071 -0.7071 501.6223 516.2964)" style="opacity:0.3;fill:#3E3B43;enable-background:new    ;" width="60.049" height="53.456"/>

		<rect x="129.012" y="331.181" transform="matrix(-0.7071 -0.7071 0.7071 -0.7071 21.903 715.0185)" style="opacity:0.3;fill:#3E3B43;enable-background:new    ;" width="60.049" height="43.584"/>
</g>
<g>
	<path style="fill:#77757E;" d="M488.276,74.56l-50.32,50.32l-50.837-50.835l50.32-50.32l-12.132-12.132
		c-15.457-15.457-40.519-15.457-55.976,0l-44.664,44.664c-15.457,15.457-15.457,40.519,0,55.976l75.099,75.099
		c15.457,15.457,40.519,15.457,55.976,0l44.665-44.665c15.457-15.457,15.457-40.519,0-55.976L488.276,74.56z"/>
	<path style="fill:#77757E;" d="M23.725,437.439l50.32-50.32l50.836,50.836l-50.32,50.32l12.132,12.132
		c15.457,15.457,40.519,15.457,55.976,0l44.665-44.665c15.457-15.457,15.457-40.519,0-55.976l-75.099-75.099
		c-15.457-15.457-40.519-15.457-55.976,0l-44.665,44.665c-15.457,15.457-15.457,40.519,0,55.976L23.725,437.439z"/>
</g>
<path style="fill:#C70024;" d="M301.182,253.278l-47.095,47.095c-8.99,8.99-8.99,23.701,0,32.692l16.919,16.919l79.787-79.787
	l-16.919-16.919C324.884,244.288,310.173,244.288,301.182,253.278z"/>
<g>

		<rect x="207.016" y="220.106" transform="matrix(-0.7071 0.7071 -0.7071 -0.7071 551.4321 228.509)" style="opacity:0.3;fill:#3E3B43;enable-background:new    ;" width="42.748" height="16.708"/>

		<rect x="21.519" y="44.57" transform="matrix(-0.7071 0.7071 -0.7071 -0.7071 155.3011 62.1083)" style="opacity:0.07;fill:#3E3B43;enable-background:new    ;" width="86.538" height="37.297"/>
</g>
<path style="fill:#FF728B;" d="M427.612,441.54L322.604,336.532c-4.069-4.069-4.069-10.668,0-14.738l0,0
	c4.069-4.069,10.668-4.069,14.738,0L442.35,426.803c4.069,4.069,4.069,10.668,0,14.738l0,0
	C438.281,445.61,431.682,445.61,427.612,441.54z"/>
</svg>
