<?xml version="1.0" encoding="UTF-8"?>
<svg xmlns="http://www.w3.org/2000/svg" id="Calque_1" data-name="Calque 1" viewBox="0 0 500 500">
  <defs>
    <style>.cls-1{fill:#e61d18;}.cls-2{fill:#c43823;}</style>
  </defs>
  <path class="cls-1" d="M447.75,226.17c-12.92-61.89-62.81-102.44-126.28-102.53q-71.37-.11-142.72,0a146.69,146.69,0,0,0-20.54,1.18A126.29,126.29,0,0,0,175,376.17c24.76.12,49.53,0,80.39,0,23.79-1,53.74,1.76,83.58-1.23C410.63,367.79,462.47,296.73,447.75,226.17ZM331,330.66a43,43,0,0,0-4.92,1.21c-1.44,1.35-3.24.88-4.9.88q-70.89,0-141.79,0c-1.67,0-3.46.43-4.94-.82-12.79-2.26-25.29-5.24-36.56-12.23-29.56-18.31-44.52-51.65-38.21-85.7,6-32.48,32.63-58.57,66.23-64.64a82.36,82.36,0,0,1,14.66-1c46.36-.07,92.72-.25,139.07,0,40.53.24,72.19,26.48,80.41,66C409.51,279.81,377,325.07,331,330.66Z"/>
  <path class="cls-2" d="M174.44,331.93l151.63-.06c-2,2.69-4.95,1.61-7.49,1.61q-68.29.11-136.58,0C179.43,333.48,176.54,334.47,174.44,331.93Z"/>
</svg>
