<?xml version="1.0" encoding="UTF-8"?>
<svg xmlns="http://www.w3.org/2000/svg" xmlns:xlink="http://www.w3.org/1999/xlink" id="Calque_1" data-name="Calque 1" viewBox="0 0 500 500">
  <defs>
    <style>.cls-1{fill:#231f20;stroke:#231f20;stroke-width:5.05px;}.cls-1,.cls-3,.cls-4,.cls-5{stroke-linecap:round;stroke-linejoin:round;}.cls-2{fill:#417ba2;}.cls-3{fill:none;stroke-width:1.68px;}.cls-3,.cls-4,.cls-5{stroke:#fff;}.cls-4,.cls-5{fill:#fff;}.cls-4{stroke-width:0.56px;}.cls-5{stroke-width:0.28px;}</style>
    <symbol id="A_4" data-name="A 4" viewBox="0 0 58.28 60.1">
      <path class="cls-1" d="M43.55,16.35c.38,3.18.27,3.65,2.64,3.13l.6-.05a13.82,13.82,0,0,1,5.61.94c3,1.4,4.81,3.74,1.83,3.13-6.78-1.4-7.25.9-7.25.9C54.15,35,57.14,48.53,54.56,51.84c-7.06,9-19.27,4.75-19.47,4.64l-.07,0a24.2,24.2,0,0,1-4.52.48,11.18,11.18,0,0,1-7.17-2.15S1.55,63.76,2.56,43.5c.21-4.3,6.18-32.61,13.29-24.06,2.6,3.13,5.1,5.77,5.1,5.77a6.58,6.58,0,0,1,4.3-1.1l.12.1A4.58,4.58,0,0,1,25.42,23c-1.83-2.05-1.29-2.41-5-3.16s-1.52-2.13-.1-2.48a7.53,7.53,0,0,1,8.4,2.73l-.11-.43c.72-.58.67-4.13.77-6.67a24.31,24.31,0,0,1,.8-6.32c.53-1.39,1.13-5,6-4,4,.86,7.09,2.1,7.38,13.64"/>
      <path class="cls-2" d="M54.23,23.5c-6.78-1.4-7.25.9-7.25.9C54.15,35,57.14,48.53,54.56,51.84c-7.06,9-19.27,4.75-19.47,4.64l-.07,0a24.21,24.21,0,0,1-4.53.48,11.2,11.2,0,0,1-7.17-2.15S1.54,63.76,2.55,43.5c.22-4.3,6.18-32.61,13.29-24.06,2.6,3.13,5.1,5.77,5.1,5.77a6.6,6.6,0,0,1,4.31-1.1l.12.1A4.58,4.58,0,0,1,25.42,23c-1.83-2.05-1.29-2.41-5-3.16s-1.53-2.13-.1-2.48a7.53,7.53,0,0,1,8.4,2.73l-.11-.43c.72-.58,1.22-3.74,1.14-6.61s-.14-4.84.42-6.38,1.13-5,5.95-4c4,.86,6.1,3.09,6.39,6.82.21,2.65.67,2.26.7,4.62l.38,1.12c.43,3.6.07,4.75,2.54,4.2l.61,0a13.65,13.65,0,0,1,5.61.95c3,1.4,4.81,3.73,1.83,3.12Z"/>
      <path class="cls-3" d="M29.06,21.44c-.19-6.68.05-13.4.7-15s2.06-4.81,6.87-3.78c4,.86,5.49,2.53,6.12,6.21.47,2.7,1.37,10.24,1.49,11.78M23.3,54.94S1.5,63.84,2.52,43.59C2.73,39.29,8.7,11,15.82,19.52c2.6,3.13,4.95,5.58,4.95,5.58m14.3,31.46c-.76-.23,12.12,4.71,19.44-4.64,2.58-3.3-.4-16.8-7.58-27.44m0,0s.47-2.3,7.26-.9c3,.62,1.18-1.72-1.84-3.12-2.47-1.15-8-1.44-8.11.14-.24,4.1,2.92,2.85,2.69,3.88s-1.62,1.83-2.55,4.09c-.81,2-11.17,17.12,2.87,14.87.52.11-3.66,13.36-16.8,13.58s-12.7-16.16-12.7-16.16m7.63-17.78c-1.83-2-1.29-2.41-4.95-3.16s-1.53-2.12-.11-2.48a7.53,7.53,0,0,1,8.4,2.73,2.51,2.51,0,0,1-1.13,3.45A1.67,1.67,0,0,1,25.38,23.08Zm-.12,0c-.18,1.2.4,2.63,1,4.3.93,2.51,3.1,5,1.37,13-1.29,5.94-9.91,1.23-9.9.43A38.88,38.88,0,0,0,17.6,33c-.7-5,3.17-9.2,7.62-8.77"/>
      <path class="cls-4" d="M23.21,41c0-.28.51-1,1.2-1.11a1.31,1.31,0,0,1,1.35.75c0,.28-.5.58-1.2.68s-1.31,0-1.35-.32Z"/>
      <path class="cls-5" d="M44.73,41.54a1.52,1.52,0,0,0-1.2-1.11,1.31,1.31,0,0,0-1.35.75c0,.28.5.58,1.21.68s1.3,0,1.35-.32Z"/>
      <path class="cls-3" d="M47.25,43.44c.12-2.15-.46-3.63-.53-5.92-.1-3.34,1.59-7.16-1-11"/>
    </symbol>
  </defs>
  <use width="58.28" height="60.1" transform="matrix(6.11, 0, 0, -6.11, 72.08, 433.48)" xlink:href="#A_4"/>
</svg>
