<?xml version="1.0" encoding="UTF-8"?>
<svg xmlns="http://www.w3.org/2000/svg" xmlns:xlink="http://www.w3.org/1999/xlink" id="Calque_1" data-name="Calque 1" viewBox="0 0 500 500">
  <defs>
    <style>.cls-1{fill:#29b5e8;}</style>
    <symbol id="A_5" data-name="A 5" viewBox="0 0 61.56 64.01">
      <path class="cls-1" d="M8.64,48.71l13-7.8a3.73,3.73,0,0,1,4.59.6,4,4,0,0,1,1.23,2.91V60.05a3.81,3.81,0,1,1-7.62,0v-8.9l-7.38,4.43a3.74,3.74,0,0,1-5.23-1.44,4.06,4.06,0,0,1,1.4-5.42m31.27-7.8,13,7.8a4,4,0,0,1,1.4,5.42,3.74,3.74,0,0,1-5.07,1.53l-.15-.08-7.3-4.37v8.84a3.81,3.81,0,1,1-7.61,0V44.74a4.07,4.07,0,0,1,.49-2.37A3.75,3.75,0,0,1,37,40.53a3.69,3.69,0,0,1,2.92.4M28.34,32a1.06,1.06,0,0,0,.27.68l1.52,1.58a1.13,1.13,0,0,0,.66.28h.05a1.13,1.13,0,0,0,.66-.28L33,32.72a1.14,1.14,0,0,0,.27-.69V32a1.13,1.13,0,0,0-.27-.68L31.5,29.71a1,1,0,0,0-.66-.28h-.05a1,1,0,0,0-.66.28l-1.52,1.58a1.08,1.08,0,0,0-.27.68Zm-4.61.65V31.32a1.59,1.59,0,0,1,.37-.93L29.26,25a1.46,1.46,0,0,1,.9-.38h1.31a1.44,1.44,0,0,1,.9.38l5.16,5.36a1.59,1.59,0,0,1,.37.93v1.37a1.59,1.59,0,0,1-.37.93L32.37,39a1.45,1.45,0,0,1-.9.39H30.16a1.47,1.47,0,0,1-.9-.39L24.1,33.61a1.59,1.59,0,0,1-.37-.93M1.91,36.39,9.28,32,1.91,27.56A4.07,4.07,0,0,1,.52,22.13a3.75,3.75,0,0,1,5.22-1.45l13,7.8A4.11,4.11,0,0,1,20.65,32a4.16,4.16,0,0,1-1.9,3.49l-13,7.8a3.74,3.74,0,0,1-2.92.4,3.69,3.69,0,0,1-2.3-1.84,4,4,0,0,1,1.4-5.42m39-4.44a4,4,0,0,1,1.91-3.48l13-7.8A3.75,3.75,0,0,1,61,22.13a4,4,0,0,1-1.4,5.42L52.28,32l7.37,4.41a4.06,4.06,0,0,1,1.4,5.43,3.74,3.74,0,0,1-5.22,1.44l-13-7.8a4,4,0,0,1-1.91-3.51M24.26,23.5A3.69,3.69,0,0,1,21.65,23l-13-7.8a4,4,0,0,1-1.4-5.42,3.75,3.75,0,0,1,5.22-1.45l7.38,4.43V4a3.82,3.82,0,0,1,3.66-4,3.77,3.77,0,0,1,2.1.54A3.81,3.81,0,0,1,27.47,4V19.61a3.92,3.92,0,0,1-3.21,3.9m28.66-8.28-13,7.8a3.69,3.69,0,0,1-2.92.39,3.75,3.75,0,0,1-2.3-1.84,4.07,4.07,0,0,1-.49-2.37V4a3.82,3.82,0,0,1,3.66-4A3.76,3.76,0,0,1,40,.54,3.8,3.8,0,0,1,41.81,4v8.77L49.1,8.36A3.74,3.74,0,0,1,52,8a3.69,3.69,0,0,1,2.3,1.84,4,4,0,0,1-1.4,5.42"/>
    </symbol>
  </defs>
  <use width="61.57" height="64.01" transform="matrix(5.6, 0, 0, -5.6, 77.55, 429.3)" xlink:href="#A_5"/>
</svg>
