<?xml version="1.0" encoding="UTF-8"?>
<svg xmlns="http://www.w3.org/2000/svg" xmlns:xlink="http://www.w3.org/1999/xlink" id="Calque_1" data-name="Calque 1" viewBox="0 0 500 500">
  <defs>
    <style>.cls-1{fill:url(#Dégradé_sans_nom_8);}.cls-2{fill:url(#Dégradé_sans_nom_7);}.cls-3{fill:url(#Dégradé_sans_nom_6);}</style>
    <linearGradient id="Dégradé_sans_nom_8" x1="-104723.08" y1="-14151.24" x2="-104481.57" y2="-14293.94" gradientTransform="translate(12579.66 2088.59) scale(0.12)" gradientUnits="userSpaceOnUse">
      <stop offset="0" stop-color="#909ca9"/>
      <stop offset="1" stop-color="#ededee"/>
    </linearGradient>
    <linearGradient id="Dégradé_sans_nom_7" x1="-104717.66" y1="-16840.77" x2="-104523.34" y2="-16840.77" gradientTransform="translate(12579.66 2088.59) scale(0.12)" gradientUnits="userSpaceOnUse">
      <stop offset="0" stop-color="#939fab"/>
      <stop offset="1" stop-color="#dcdee1"/>
    </linearGradient>
    <radialGradient id="Dégradé_sans_nom_6" cx="102374.44" cy="-9572.69" r="258" gradientTransform="matrix(-0.11, -0.02, 0.03, -0.23, 12266.78, -234.92)" gradientUnits="userSpaceOnUse">
      <stop offset="0" stop-color="#ee352c"/>
      <stop offset="1" stop-color="#a91d22"/>
    </radialGradient>
  </defs>
  <path class="cls-1" d="M313.92,236.33l-79.3,25.9-69,30.45-19.3,5.09c-4.92,4.68-10.07,9.41-15.65,14.21-6.11,5.27-11.81,10.07-16.18,13.55a120.56,120.56,0,0,0-15.71,15.58c-5.45,6.83-9.77,14.09-11.63,19.66-3.29,10.07-1.67,20.26,4.68,29.67,8.15,12,24.4,24.22,43.34,32.55a275.19,275.19,0,0,0,38.12,12.77c20.32,5.15,59.64,10.73,81.28,11.57a93,93,0,0,0,10.49,0c.48-.3,3.84-6.72,7.73-14.69,13.31-27.15,22.9-52.63,28.12-74.39,3.11-13.18,5.57-30.75,7.19-51.54.42-5.82.6-25.3.24-31.89a223.73,223.73,0,0,0-3-28.12,6.45,6.45,0,0,1-.18-2.45c.24-.18,1-.42,10.73-3.24l-2-4.68Zm-18.1,10.61c.72,0,2.64,18.4,3.12,30a16.08,16.08,0,0,1-.06,4.08c-.48,0-10.13-5.69-17-10-6-3.78-17.39-11.33-19.19-12.77-.6-.42-.54-.48,4.38-2.16C275.38,253.3,295.16,246.94,295.82,246.94Zm-40.4,13.31c.54,0,1.92.78,5.21,2.82,12.35,7.73,29.14,17.08,36.33,20.2,2.22,1,2.46.6-2.64,4.07-10.91,7.44-24.51,14.75-41.18,22.12-2.94,1.32-5.39,2.34-5.45,2.34a15.54,15.54,0,0,1,.72-3.3c4-14.92,6.29-30,6.41-42.14.06-6,.06-6,.6-6.17-.12.06-.06.06,0,.06Zm-8.33,3.18c.36.36.12,13.78-.36,17.44a152.29,152.29,0,0,1-5.52,26.07,40.86,40.86,0,0,1-1.37,4.2c-.24.3-8.46-7.73-11.15-10.85a80.58,80.58,0,0,1-11-16.06c-1.38-2.7-3.54-8-3.36-8.16,1-.66,32.55-12.88,32.79-12.64Zm-39.2,15.4a.22.22,0,0,1,.18.06,11.18,11.18,0,0,1,.9,2.16,80.58,80.58,0,0,0,9.95,17.8,101.32,101.32,0,0,0,13.84,14.93c1.44,1.2,2.76,2.33,2.94,2.51.36.36.48.3-9.29,4-11.33,4.32-23.68,8.63-37.83,13.19l-10.12,3.29c-.54.18-.36-.12,1.19-2.57,7-11,17.69-32.49,23.68-47.72,1-2.63,2-5.27,2.22-5.87a2.16,2.16,0,0,1,1.32-1.56,5.72,5.72,0,0,1,1-.24Zm-12,5c.18.12-2.88,6.53-5.88,12.4-5.81,11.33-12.16,22.48-20.68,36-1.43,2.34-2.81,4.5-3,4.73-.3.42-.42.3-1.38-1.55a55.08,55.08,0,0,1-4.62-13.91,55.92,55.92,0,0,1,.3-17.86c.78-3.72.72-3.66,2.52-4.56,7.67-3.89,32.49-15.52,32.73-15.28ZM299.3,288v2.52a326,326,0,0,1-3.54,45.08c-.36,2.33-.66,4.25-.72,4.31s-1.74-.48-3.78-1.08A153.69,153.69,0,0,1,263.69,327c-5.81-3.17-14.26-8.39-14-8.63.05-.06,2.57-1.38,5.51-2.93A353.1,353.1,0,0,0,288,296.21c3.65-2.45,9.17-6.41,10.37-7.49l1-.72ZM150.64,305.74c.24,0,.18.48-.18,2.64-.24,1.56-.54,4.44-.66,6.42-.48,8.75,1,15.22,5.28,24.09a50,50,0,0,1,2.1,4.56c-.42.36-40.1,12-52.57,15.4l-7.2,2c-.41.12-.47.06-.3-1,1.38-8.81,8.1-20.32,17.45-30,6.23-6.47,11.21-10.25,19.72-15.11,6.11-3.47,15.52-8.69,16.24-8.93,0-.06.06-.06.12-.06Zm93.51,16.73a24.08,24.08,0,0,1,3.24,1.74c12.83,7.43,30.69,14.32,45.91,17.86l1.38.3-1.92,1.08c-8,4.43-34.16,15.34-61,25.35-3.89,1.44-7.73,2.88-8.45,3.18a4.31,4.31,0,0,1-1.38.42c0-.06,1.08-2.16,2.46-4.74,7.49-14,15-31.11,18.88-43,.48-1.14.78-2.16.84-2.22Zm-9.53,3.12a17.55,17.55,0,0,1-1,2.75,378.37,378.37,0,0,1-20.8,41.9c-2.22,4-4.07,7.14-4.13,7.14s-1.86-1.08-4-2.4c-12.71-7.8-24-17.39-31.35-26.68L172.22,347l5.46-1.49a390.89,390.89,0,0,0,52.62-18.17C232.64,326.37,234.56,325.59,234.62,325.59Zm59.22,20.68h0c.06,1.37-3,13.72-5.51,22.65-2.1,7.5-3.9,13.37-7.2,23.74-1.43,4.56-2.69,8.33-2.75,8.33a3.94,3.94,0,0,1-.78-.18,250.85,250.85,0,0,1-48.73-13.72c-4.2-1.68-10.19-4.38-10.55-4.68-.12-.12,3.47-1.8,8-3.78,27.27-11.93,55.56-25.47,65.27-31.29a7.67,7.67,0,0,1,2.22-1.07Zm-136.72,4.67c.12.12-7.5,11.09-18.17,26-3.71,5.21-8,11.32-9.65,13.6s-4.07,5.88-5.45,8l-2.52,3.9-2.7-2.28a100.59,100.59,0,0,1-11.15-11.39c-5.15-6.41-8.63-13.18-10-19.36-.65-2.87-.65-4.31-.06-4.49.9-.24,16.91-4,31.89-7.5,8.34-1.91,18-4.19,21.46-5s6.3-1.5,6.36-1.5Zm7.67,2.94,1.92,2.16a112.41,112.41,0,0,0,28.11,23,15.87,15.87,0,0,1,3.24,2.1c-.42.3-37.05,13.31-54,19.18-9.53,3.36-17.38,6.06-17.44,6.06a10.31,10.31,0,0,1-1.2-.78l-1.08-.78,1.74-2.52c5.63-8.15,12.71-17.08,28.11-35.66l10.61-12.77Zm47.83,34.22c.06-.06,2.7.9,5.94,2.1a191.37,191.37,0,0,0,22.23,6.9,247.57,247.57,0,0,0,33.63,5.81c1.32.12,2,.24,1.8.42-.42.24-9.23,3.18-15.7,5.21-10.32,3.24-41.78,12.53-67.44,19.91-4.73,1.37-8.81,2.51-9.05,2.57a4.76,4.76,0,0,1-2.58-.66,43.94,43.94,0,0,1,3.18-4A357.21,357.21,0,0,0,209,393.62c2-3,3.65-5.46,3.65-5.52Zm-10.55.3c.06.06-4.19,6.9-11.63,18.65-3.17,5-6.71,10.6-8,12.58s-3,4.92-4,6.6l-1.74,3-.9-.24c-2.16-.6-17.33-5.93-21.34-7.55a148.34,148.34,0,0,1-14-6.41c-4.79-2.58-10.79-6.42-10.31-6.54.12-.06,8.33-2.27,18.22-5,26.26-7.13,40.82-11.27,50.36-14.27a23.87,23.87,0,0,1,3.29-.9Zm74.63,17.51h.06c.24.6-9.47,27.57-13,36.08-.78,1.92-1.08,2.4-1.5,2.34-1-.06-15.1-2-23.67-3.3-14.93-2.28-40-6.65-46.28-8.09l-1.44-.3,8.93-2c19.19-4.31,28.42-6.65,37.77-9.53a266.08,266.08,0,0,0,35.3-13.61,29.87,29.87,0,0,1,3.84-1.55Z"/>
  <path class="cls-2" d="M232.16,51.47c-1.32-.18-22.6,7.5-36.32,13.07-18.52,7.55-32.91,14.75-41.78,21-3.3,2.34-7.43,6.47-8.09,8.09a5.61,5.61,0,0,0-.36,2l8,7.61,19.12,6.12,45.5,8.15,52,8.93.54-4.5c-.18,0-.3,0-.48,0l-6.84-1.08-1.38-2.46C255.06,105.9,247.27,90.44,242.71,80A200.26,200.26,0,0,1,234,55.85c-1-4.08-1.14-4.32-1.8-4.38Zm-1,3.06h.06c.06.06.3,1.74.54,3.72a125.12,125.12,0,0,0,5.82,25.23c2.22,6.6,2.22,6.24-.36,5.46-6.12-1.68-33.51-6.42-53.35-9.17-3.18-.42-5.87-.84-5.87-.9C177.8,78.63,192.36,71,198.78,68c8.21-3.78,30.75-13.19,32.42-13.49ZM173.42,81.38l2.34.78C188.47,86.48,220.41,92.59,238,94c2,.18,3.65.36,3.71.36a27.22,27.22,0,0,1-3.77,2c-8.51,4.26-17.87,9.47-24.34,13.49a24.93,24.93,0,0,1-3.89,2.15c-.24,0-1.5-.23-2.82-.41l-2.4-.37-6-5.87C188,95.11,179.72,87.2,176.54,84.2ZM171,83.24l8.45,10.55c4.62,5.82,9.3,11.51,10.32,12.77a20,20,0,0,1,1.79,2.34c-.24.18-12.22-2.16-18.58-3.6-6.53-1.5-9.23-2.22-13.25-3.47l-3.29-1.08v-.84c.06-4,5.15-10,13.78-16.13l.78-.54Zm71.81,14.39c.24,0,.54.54,1.26,2.16,2,4.49,8.39,16.6,9.95,18.94.48.78,1.32.84-7.13-.54-20.32-3.3-26.86-4.38-26.86-4.5a6.21,6.21,0,0,1,1.38-.9,117,117,0,0,0,18.29-12.64c1.37-1.14,2.63-2.22,2.87-2.4.06-.12.18-.18.24-.12Z"/>
  <path class="cls-3" d="M146.39,92.77a6,6,0,0,0-.06,5.22c.78,1.92,3,4.25,5.63,6.65,0,0,26.68,26,29.91,29.73,14.75,17,21.16,33.81,21.76,56.95.36,14.86-2.46,27.93-9.47,43.1-12.47,27.21-38.78,57.24-79.36,90.57l5.93-2c3.84-2.88,9-5.94,21.28-12.65,28.23-15.46,60-29.67,99-44.3,56.11-21.1,148.36-45.79,200.87-53.82l5.45-.84-.84-1.32a184.57,184.57,0,0,0-12.05-17c-11.5-14.26-25.47-25.83-42.55-35.42-23.5-13.13-53.89-23.38-92.37-31-7.26-1.44-23.2-4.2-36.15-6.17-27.45-4.26-45.19-7.2-64.73-10.55-7-1.2-17.51-3-24.46-4.5a156.59,156.59,0,0,1-15.88-4.25c-4.32-1.68-10.55-3.36-11.87-8.46Zm15.46,15a16.57,16.57,0,0,1,2.28.72c2.28.78,5.21,1.68,8.69,2.64q3.94,1.08,7.91,2.09c3.6.9,6.6,1.74,6.66,1.74.42.42,6.47,19.78,8.51,27.21.78,2.82,1.38,5.22,1.32,5.22a12.3,12.3,0,0,1-1.5-2.34c-7-12.35-18.1-24.87-30.93-34.94a25.57,25.57,0,0,1-2.94-2.34Zm29.49,8.15a23.56,23.56,0,0,1,3.24.54c10.19,2.28,28.47,5.75,40.16,7.73a14.65,14.65,0,0,1,3.54.78,6.05,6.05,0,0,1-1.62,1c-2,1-9.95,5.75-12.59,7.55a114.68,114.68,0,0,0-17,13.55c-1.74,1.74-3.24,3.18-3.24,3.18s-.36-1-.66-2.28a194.21,194.21,0,0,0-10.73-29.37,25.71,25.71,0,0,1-1.2-2.76c0,.12,0,.06.06.06Zm51.91,9.89c.36.12,1,2.16,2.16,6.65a98.13,98.13,0,0,1,2.88,27.46,51.48,51.48,0,0,1-.36,5.15l-.18.6-3.12-1c-6.41-2-16.84-5.09-25.77-7.61-5.1-1.38-9.23-2.64-9.23-2.76,0-.36,7.43-7.79,10.61-10.61,6-5.33,22.47-18,23-17.86Zm4.14.6c.18-.18,24.81,4.08,36,6.23,8.34,1.62,20.44,4.14,21.16,4.44.36.12-.9.84-4.91,2.64-15.83,7.13-27.58,13.54-39.26,21.34-3.06,2-5.64,3.71-5.7,3.71a32.54,32.54,0,0,1-.12-3.83,83.84,83.84,0,0,0-6.47-32.61A9.1,9.1,0,0,1,247.39,126.4ZM311.11,139c.18.18-.6,5-1.32,7.91-2.16,8.93-8,22.18-15.11,34.65a40.23,40.23,0,0,1-2.52,4.07,25.61,25.61,0,0,1-3.59-1.92,195.77,195.77,0,0,0-23.5-11.5c-2.4-1-4.49-1.86-4.55-2-.43-.36,18.88-13.13,29.07-19.24,8.09-4.92,21.28-12.23,21.52-12Zm4.55.72c.54,0,11.45,3,17.14,4.67a353.19,353.19,0,0,1,40.82,14.93l4.38,2-3.06.72a446.69,446.69,0,0,0-69.11,21.39c-1.74.72-3.3,1.32-3.42,1.32a15.58,15.58,0,0,1,1.26-3.05c6.42-13.61,10.55-27.82,11.57-39.93.06-1.13.24-2,.42-2ZM207.05,164.64c.18-.18,8.51,1.8,13,3.06,6.84,1.92,21.34,6.77,21.34,7.13,0,.06-1.61,1.44-3.53,3.12-7.85,6.53-15.41,13.43-24.46,22.18-2.7,2.58-5,4.67-5.09,4.67s-.18-.36-.12-.84c1.37-10.07,1.08-23-.84-36.14C207.17,166.14,207,164.7,207.05,164.64Zm175.09.18a116,116,0,0,1-6.36,9.89c-3.59,5.16-8.87,12-20.8,27-6.29,7.91-13.37,16.84-15.7,19.84S334.9,227,334.84,227a20.57,20.57,0,0,1-1.68-2.4,123.7,123.7,0,0,0-24.27-26.79c-1.8-1.5-3.78-3.12-4.44-3.6a6.67,6.67,0,0,1-1.2-1c0-.17,10.19-4.55,17.93-7.67,13.54-5.51,32-12.11,45.85-16.36,7.25-2.28,15-4.5,15.11-4.38Zm4.61,1.2a13.77,13.77,0,0,1,3.42,1.68,203.38,203.38,0,0,1,40.1,30.09c3.18,3.12,11,11.27,10.91,11.33s-2.76.24-6,.48c-25.23,1.92-57.54,7.25-88.59,14.74-2.1.48-3.95.9-4.08.9s2.22-2.33,5.16-5.15c18.22-17.56,26.55-28.65,36.38-48.43,1.38-2.94,2.58-5.46,2.7-5.64ZM253.26,179.69c.84.18,8.63,3.84,14.51,6.77,5.39,2.7,13.49,7,13.9,7.37.06.06-2.81,1.56-6.35,3.3-11.27,5.64-20.92,11-31,17.08-2.88,1.74-5.27,3.18-5.33,3.18-.24,0-.18-.24,1.44-3.18a125,125,0,0,0,12.16-33c.24-.9.48-1.5.66-1.5Zm-7.79,1.44c.18.18-1.86,7.55-3.12,11.57A147.27,147.27,0,0,1,231.74,217c-1,1.68-2.39,4.14-3.17,5.52l-1.5,2.39-3.36-3.23a43.85,43.85,0,0,0-11.15-8.22,15.45,15.45,0,0,1-2.87-1.67c0-.48,10.24-9.77,18.1-16.49,5.63-4.85,17.5-14.38,17.68-14.2Zm47.65,19.6,2.94,1.92a227.07,227.07,0,0,1,20.68,15.28c3.42,2.82,10,8.75,11.33,10.19l.72.78-4.86,1.38c-27.45,7.61-48.67,14.38-73.43,23.5-2.75,1-5.09,1.85-5.27,1.85-.36,0-.66.3,5.51-5.39C266.57,235.67,280.6,219.61,291,204l2.09-3.23Zm-12.52,3.11c.12.12-8.1,11.69-13,18.23-5.88,7.79-16.31,20.86-23.5,29.37-3,3.53-5.57,6.47-5.69,6.53s-.24-.84-.24-2.22a50.25,50.25,0,0,0-5.1-21.58c-1.38-2.75-1.62-3.41-1.32-3.71,1.14-1,18.59-11,29.61-16.91,7.44-4,19.06-9.83,19.25-9.71Zm-75.77,18.59A27.57,27.57,0,0,1,208,224a66.33,66.33,0,0,1,10.31,7c.12.12-1.44,1.38-3.48,2.87-5.69,4.08-14.33,10.61-19.36,14.63-5.28,4.2-5.45,4.32-4.86,3.42a110.48,110.48,0,0,0,8-13.85,112.57,112.57,0,0,0,5-12.53,10.17,10.17,0,0,1,1.2-3ZM225,238.25c.3-.06.66.48,2.28,2.88A43.32,43.32,0,0,1,234,258.57l.12,1.2L225.93,263c-14.69,5.69-28.23,11.33-37.4,15.52-2.58,1.2-7.08,3.36-10,4.8s-5.34,2.63-5.34,2.57,1.86-1.43,4.14-3.11c17.92-13,33.44-27.28,45.07-41.54,1.26-1.5,2.4-2.88,2.52-2.94Zm-9.29,2.28c.24.24-6.59,8-11.27,12.71a199.33,199.33,0,0,1-37.22,30c-1.8,1.14-3.42,2.15-3.6,2.28-.42.23.12-.36,6.35-7.14a158.86,158.86,0,0,0,10.37-12.29,20.36,20.36,0,0,1,6-5.69C195.18,254.08,215.5,240.29,215.74,240.53Z"/>
</svg>
